<svg width="18" height="16" viewBox="0 0 18 16" fill="none" xmlns="http://www.w3.org/2000/svg">
<path fill-rule="evenodd" clip-rule="evenodd" d="M12.9331 6.0101L9.69674 9.24645V0.15625H8.29674V9.24645L5.06039 6.0101L4.07044 7.00005L8.50176 11.4314L8.99674 11.9264L9.49171 11.4314L13.923 7.00005L12.9331 6.0101ZM0.796875 11.4985V14.4985C0.796875 14.8851 1.11028 15.1985 1.49687 15.1985H16.4969C16.8835 15.1985 17.1969 14.8851 17.1969 14.4985V11.4985H15.7969V13.7985H2.19688V11.4985H0.796875Z" fill="#2D2D2D"/>
<path fill-rule="evenodd" clip-rule="evenodd" d="M12.9331 6.0101L9.69674 9.24645V0.15625H8.29674V9.24645L5.06039 6.0101L4.07044 7.00005L8.50176 11.4314L8.99674 11.9264L9.49171 11.4314L13.923 7.00005L12.9331 6.0101ZM0.796875 11.4985V14.4985C0.796875 14.8851 1.11028 15.1985 1.49687 15.1985H16.4969C16.8835 15.1985 17.1969 14.8851 17.1969 14.4985V11.4985H15.7969V13.7985H2.19688V11.4985H0.796875Z" fill="black" fill-opacity="0.2"/>
<path fill-rule="evenodd" clip-rule="evenodd" d="M12.9331 6.0101L9.69674 9.24645V0.15625H8.29674V9.24645L5.06039 6.0101L4.07044 7.00005L8.50176 11.4314L8.99674 11.9264L9.49171 11.4314L13.923 7.00005L12.9331 6.0101ZM0.796875 11.4985V14.4985C0.796875 14.8851 1.11028 15.1985 1.49687 15.1985H16.4969C16.8835 15.1985 17.1969 14.8851 17.1969 14.4985V11.4985H15.7969V13.7985H2.19688V11.4985H0.796875Z" fill="black" fill-opacity="0.2"/>
</svg>
