<svg width="28" height="28" viewBox="0 0 28 28" fill="none" xmlns="http://www.w3.org/2000/svg">
<g clip-path="url(#clip0_903_35198)">
<path d="M6.01321 6.95206C5.66529 7.33343 5.07467 7.36052 4.69061 7.01014C4.30924 6.66222 4.28215 6.0716 4.63008 5.69023C4.978 5.30886 5.56862 5.28177 5.94999 5.62969C6.33136 5.97761 6.36114 6.57069 6.01321 6.95206Z" fill="white"/>
<path d="M8.53983 9.20351C8.1919 9.58488 7.60128 9.61197 7.21991 9.26405C6.83854 8.91613 6.81145 8.3255 7.15937 7.94413C7.50729 7.56276 8.09792 7.53567 8.47929 7.8836C8.86066 8.23152 8.88775 8.82214 8.53983 9.20351Z" fill="white"/>
<path d="M10.9109 11.4418C10.563 11.8232 9.97236 11.8503 9.59099 11.5023C9.20962 11.1544 9.18253 10.5638 9.53045 10.1824C9.87837 9.80106 10.469 9.77397 10.8504 10.1219C11.2342 10.4671 11.2588 11.0604 10.9109 11.4418Z" fill="white"/>
<path d="M5.4289 24.4641C5.33438 24.4641 5.2435 24.4278 5.17079 24.3587C5.02901 24.2169 5.02901 23.9879 5.17079 23.8461L9.79141 19.2255C9.93319 19.0837 10.1622 19.0837 10.304 19.2255C10.4458 19.3673 10.4458 19.5963 10.304 19.7381L5.68338 24.3587C5.61431 24.4278 5.51979 24.4641 5.4289 24.4641Z" fill="white"/>
<path d="M18.9309 10.9613C18.8363 10.9613 18.7455 10.9249 18.6727 10.8558C18.531 10.714 18.531 10.485 18.6727 10.3432L23.8823 5.13368C24.0241 4.9919 24.2531 4.9919 24.3949 5.13368C24.5367 5.27546 24.5367 5.50449 24.3949 5.64627L19.1853 10.8558C19.1163 10.9249 19.0217 10.9613 18.9309 10.9613Z" fill="white"/>
<path d="M10.638 27.9472C9.03116 27.9472 7.52973 27.3328 6.41366 26.2167L3.15996 22.9594C3.05817 22.8576 3 22.7194 3 22.574C3 22.4286 3.05817 22.2904 3.15996 22.1887L7.91509 17.4335C8.01688 17.3317 8.15502 17.2736 8.30044 17.2736C8.44586 17.2736 8.584 17.3317 8.6858 17.4335L9.75097 18.4987C10.4199 19.1713 11.3324 19.5239 12.3903 19.5239C13.8299 19.5239 15.3204 18.8586 16.4801 17.7025L17.1709 17.0118C18.1924 15.9939 18.8286 14.7179 18.9668 13.4237C19.1013 12.1767 18.745 11.0606 17.967 10.2827L16.9018 9.21748C16.8001 9.11568 16.7419 8.97754 16.7419 8.83212C16.7419 8.68671 16.8001 8.54856 16.9018 8.44677L22.1877 3.16087C22.4022 2.94638 22.7476 2.94638 22.9585 3.16087L26.2158 6.4182C27.7318 7.93417 28.2989 10.1191 27.7245 12.264C27.2228 14.8596 24.8961 18.4878 21.6533 21.7306C18.0143 25.3696 13.9826 27.7908 11.376 27.9035C11.1288 27.9326 10.8816 27.9472 10.638 27.9472Z" fill="white"/>
</g>
<defs>
<clipPath id="clip0_903_35198">
<rect width="27.9964" height="28" fill="white" transform="translate(0.00195312)"/>
</clipPath>
</defs>
</svg>
