<svg width="12" height="10" viewBox="0 0 12 10" fill="none" xmlns="http://www.w3.org/2000/svg">
<path d="M1 0.5H11C11.2761 0.5 11.5 0.723858 11.5 1V9C11.5 9.27614 11.2761 9.5 11 9.5H1C0.723857 9.5 0.5 9.27614 0.5 9V1C0.5 0.723858 0.723858 0.5 1 0.5Z" stroke="#2D2D2D"/>
<path d="M1 0.5H11C11.2761 0.5 11.5 0.723858 11.5 1V9C11.5 9.27614 11.2761 9.5 11 9.5H1C0.723857 9.5 0.5 9.27614 0.5 9V1C0.5 0.723858 0.723858 0.5 1 0.5Z" stroke="black" stroke-opacity="0.2"/>
<path d="M1 0.5H11C11.2761 0.5 11.5 0.723858 11.5 1V9C11.5 9.27614 11.2761 9.5 11 9.5H1C0.723857 9.5 0.5 9.27614 0.5 9V1C0.5 0.723858 0.723858 0.5 1 0.5Z" stroke="black" stroke-opacity="0.2"/>
<path d="M1 1L5.3753 4.50024C5.74052 4.79242 6.25948 4.79242 6.62469 4.50024L11 1" stroke="#2D2D2D"/>
<path d="M1 1L5.3753 4.50024C5.74052 4.79242 6.25948 4.79242 6.62469 4.50024L11 1" stroke="black" stroke-opacity="0.2"/>
<path d="M1 1L5.3753 4.50024C5.74052 4.79242 6.25948 4.79242 6.62469 4.50024L11 1" stroke="black" stroke-opacity="0.2"/>
</svg>
