<svg width="20" height="22" viewBox="0 0 20 22" fill="none" xmlns="http://www.w3.org/2000/svg">
<path fill-rule="evenodd" clip-rule="evenodd" d="M16.9711 2.65914C16.7622 2.45021 16.5142 2.28447 16.2412 2.17139C15.9682 2.05832 15.6756 2.00012 15.3801 2.00012C15.0847 2.00012 14.7921 2.05832 14.5191 2.17139C14.2461 2.28447 13.9981 2.45021 13.7891 2.65914L2.84915 13.5991C2.14592 14.3025 1.75091 15.2564 1.751 16.251C1.7511 17.2456 2.14629 18.1994 2.84965 18.9026C3.553 19.6059 4.5069 20.0009 5.5015 20.0008C6.4961 20.0007 7.44992 19.6055 8.15315 18.9021L15.8461 11.2091C15.9883 11.0767 16.1764 11.0045 16.3707 11.008C16.565 11.0114 16.7504 11.0901 16.8878 11.2275C17.0252 11.3649 17.1039 11.5503 17.1073 11.7446C17.1107 11.9389 17.0386 12.127 16.9061 12.2691L9.21315 19.9621C8.728 20.46 8.1488 20.8566 7.50918 21.1288C6.86955 21.4011 6.18222 21.5436 5.48708 21.5481C4.79194 21.5525 4.10283 21.4189 3.45973 21.155C2.81664 20.8911 2.23236 20.502 1.74081 20.0105C1.24927 19.5189 0.860231 18.9347 0.596285 18.2916C0.33234 17.6485 0.198739 16.9593 0.203235 16.2642C0.207731 15.5691 0.350235 14.8817 0.622477 14.2421C0.89472 13.6025 1.29128 13.0233 1.78915 12.5381L12.7281 1.59814C13.4315 0.894919 14.3854 0.499906 15.38 0.5C16.3746 0.500094 17.3284 0.895287 18.0316 1.59864C18.7349 2.30199 19.1299 3.2559 19.1298 4.25049C19.1297 5.24509 18.7345 6.19892 18.0311 6.90214L7.09815 17.8351L7.09015 17.8431L7.08315 17.8501L7.08115 17.8521L7.07815 17.8541C6.65051 18.2533 6.08423 18.4702 5.49937 18.4589C4.91451 18.4475 4.35705 18.2089 3.94518 17.7935C3.5333 17.3781 3.29939 16.8187 3.29304 16.2337C3.28669 15.6488 3.50839 15.0844 3.91115 14.6601L11.7211 6.85014C11.8625 6.71345 12.0519 6.63777 12.2486 6.63938C12.4452 6.641 12.6334 6.71979 12.7725 6.85878C12.9116 6.99777 12.9906 7.18584 12.9924 7.38249C12.9942 7.57914 12.9187 7.76862 12.7821 7.91014L4.97215 15.7201C4.83052 15.8599 4.75022 16.0502 4.74891 16.2492C4.74759 16.4482 4.82538 16.6395 4.96515 16.7811C5.10492 16.9228 5.29522 17.0031 5.4942 17.0044C5.69317 17.0057 5.88452 16.9279 6.02615 16.7881L16.9711 5.84014C17.1801 5.63121 17.3458 5.38317 17.4589 5.11018C17.572 4.8372 17.6302 4.54462 17.6302 4.24914C17.6302 3.95366 17.572 3.66108 17.4589 3.3881C17.3458 3.11511 17.1801 2.86807 16.9711 2.65914Z" fill="#717171"/>
</svg>
