<svg width="28" height="28" viewBox="0 0 28 28" fill="none" xmlns="http://www.w3.org/2000/svg">
<path d="M14 24C8.48763 24 4 19.5174 4 14C4 8.48258 8.48763 4 14 4C19.5124 4 24 8.48763 24 14C24 15.9384 23.4498 17.8062 22.3998 19.4266L23.7123 22.9197C23.8132 23.1822 23.7577 23.475 23.5709 23.687C23.3841 23.899 23.1015 23.9899 22.8289 23.9243L18.5533 22.9096C17.155 23.6214 15.5851 24 14 24Z" fill="white"/>
<path d="M11.8722 13.9734C11.8722 14.4896 11.4542 14.9077 10.9343 14.9077C10.4181 14.9077 10 14.4896 10 13.9734C10 13.4571 10.4181 13.0391 10.9343 13.0391C11.4505 13.0391 11.8722 13.4571 11.8722 13.9734Z" fill="#FF5C16"/>
<path d="M15.2573 13.9343C15.2573 14.4505 14.8392 14.8686 14.323 14.8686C13.8067 14.8686 13.3887 14.4505 13.3887 13.9343C13.3887 13.4181 13.8067 13 14.323 13C14.8392 13 15.2573 13.4181 15.2573 13.9343Z" fill="#FF5C16"/>
<path d="M18.517 13.989C18.517 14.5052 18.099 14.9233 17.5827 14.9233C17.0665 14.9233 16.6484 14.5052 16.6484 13.989C16.6484 13.4728 17.0665 13.0547 17.5827 13.0547C18.099 13.0511 18.517 13.4728 18.517 13.989Z" fill="#FF5C16"/>
</svg>
