<svg width="12" height="12" viewBox="0 0 12 12" fill="none" xmlns="http://www.w3.org/2000/svg">
<mask id="path-1-inside-1_1116_97747" fill="white">
<path d="M12 9L12 11C12 11.5523 11.5523 12 11 12L1 12C0.447715 12 -1.11564e-07 11.5523 -8.74228e-08 11L0 9L12 9Z"/>
</mask>
<path d="M13 9L13 11C13 12.1046 12.1046 13 11 13L11 11L11 9L13 9ZM1 13C-0.10457 13 -1 12.1046 -1 11L-1 9L1 9L1 11L1 13ZM0 9L12 9L0 9ZM13 11C13 12.1046 12.1046 13 11 13L1 13C-0.10457 13 -1 12.1046 -1 11L1 11L11 11L13 11Z" fill="white" mask="url(#path-1-inside-1_1116_97747)"/>
<path d="M5.9965 8.20271V0.117598M5.9965 8.20271L9.32 4.87922M5.9965 8.20271L2.67301 4.87922" stroke="white"/>
</svg>
