<svg width="16" height="17" viewBox="0 0 16 17" fill="none" xmlns="http://www.w3.org/2000/svg">
<path d="M9.293 0.5H4C3.46957 0.5 2.96086 0.710714 2.58579 1.08579C2.21071 1.46086 2 1.96957 2 2.5V14.5C2 15.0304 2.21071 15.5391 2.58579 15.9142C2.96086 16.2893 3.46957 16.5 4 16.5H12C12.5304 16.5 13.0391 16.2893 13.4142 15.9142C13.7893 15.5391 14 15.0304 14 14.5V5.207C13.9999 4.9418 13.8945 4.68749 13.707 4.5L10 0.793C9.81251 0.605451 9.5582 0.500057 9.293 0.5ZM9.5 4V2L12.5 5H10.5C10.2348 5 9.98043 4.89464 9.79289 4.70711C9.60536 4.51957 9.5 4.26522 9.5 4ZM5.884 7.18L8 9.719L10.116 7.179C10.201 7.07716 10.323 7.01325 10.4551 7.00134C10.5872 6.98943 10.7187 7.0305 10.8205 7.1155C10.9223 7.2005 10.9862 7.32248 10.9982 7.4546C11.0101 7.58672 10.969 7.71816 10.884 7.82L8.651 10.5L10.884 13.18C10.9651 13.2823 11.0031 13.4122 10.9897 13.542C10.9763 13.6719 10.9127 13.7913 10.8124 13.8749C10.7121 13.9585 10.5832 13.9995 10.453 13.9892C10.3229 13.979 10.2019 13.9182 10.116 13.82L8 11.281L5.884 13.821C5.799 13.9228 5.67702 13.9867 5.5449 13.9987C5.41278 14.0106 5.28134 13.9695 5.1795 13.8845C5.07766 13.7995 5.01375 13.6775 5.00184 13.5454C4.98993 13.4133 5.031 13.2818 5.116 13.18L7.349 10.5L5.116 7.82C5.0721 7.76982 5.03868 7.71137 5.01771 7.64808C4.99673 7.5848 4.98862 7.51796 4.99386 7.45149C4.9991 7.38503 5.01758 7.32028 5.04821 7.26106C5.07884 7.20185 5.12101 7.14935 5.17223 7.10667C5.22344 7.06399 5.28268 7.03198 5.34645 7.01253C5.41022 6.99308 5.47724 6.98658 5.54356 6.99341C5.60988 7.00025 5.67416 7.02027 5.73263 7.05232C5.79109 7.08436 5.84256 7.12777 5.884 7.18Z" fill="white"/>
<rect x="4" y="6.5" width="8" height="8" fill="white"/>
<path d="M3.5 11.0352V7.5H4.88672C5.69238 7.5 6.15137 7.99316 6.15137 8.69141C6.15137 9.39941 5.68262 9.88281 4.86719 9.88281H4.23242V11.0352H3.5ZM4.23242 9.29199H4.75C5.18457 9.29199 5.39453 9.04785 5.39453 8.69141C5.39453 8.33984 5.18457 8.10059 4.75 8.10059H4.23242V9.29199Z" fill="#E71825"/>
<path d="M7.86035 11.0352H6.61523V7.5H7.875C8.93945 7.5 9.58887 8.16406 9.58887 9.2627C9.58887 10.3711 8.93945 11.0352 7.86035 11.0352ZM7.34766 10.4053H7.83105C8.50488 10.4053 8.85645 10.0537 8.85645 9.2627C8.85645 8.47656 8.50488 8.12988 7.83594 8.12988H7.34766V10.4053Z" fill="#E71825"/>
<path d="M10.1211 11.0352V7.5H12.4502V8.10547H10.8535V8.96484H12.2988V9.57031H10.8535V11.0352H10.1211Z" fill="#E71825"/>
</svg>
