<svg width="20" height="16" viewBox="0 0 20 16" fill="none" xmlns="http://www.w3.org/2000/svg">
<path d="M10.0411 7.09502L10.1158 7.1546L12.7825 9.61614C13.0429 9.85646 13.0429 10.2461 12.7825 10.4864C12.5458 10.7049 12.1755 10.7248 11.9145 10.546L11.8397 10.4864L10.3111 9.07487V15.3846C10.3111 15.7245 10.0126 16 9.64444 16C9.30694 16 9.02801 15.7685 8.98386 15.4681L8.97778 15.3846V9.07487L7.44918 10.4864C7.2125 10.7049 6.84213 10.7248 6.58115 10.546L6.50637 10.4864C6.26969 10.268 6.24817 9.92607 6.44182 9.68516L6.50637 9.61614L9.17304 7.1546C9.40972 6.93613 9.78009 6.91626 10.0411 7.09502ZM9.03448 0C12.3107 0 15.0302 2.22812 15.4409 5.13785L15.4569 5.27426L15.4713 5.27473C17.9046 5.27473 19.8929 7.02674 19.9958 9.22722L20 9.40659C20 11.3794 18.4785 13.0935 16.419 13.4963L16.2244 13.5302L16.1155 13.5385H14.0889C13.7207 13.5385 13.4222 13.2629 13.4222 12.9231C13.4222 12.6115 13.673 12.3541 13.9984 12.3133L14.0889 12.3077H16.0524L16.1673 12.2873C17.5481 12.006 18.5872 10.8757 18.6623 9.55928L18.6667 9.40659C18.6667 7.80626 17.2381 6.50549 15.4713 6.50549C15.3502 6.50549 15.2308 6.51158 15.1133 6.52365L14.9388 6.54625L14.1685 6.6668L14.1587 5.75264C14.0788 3.23978 11.8114 1.23077 9.03448 1.23077C6.2012 1.23077 3.90805 3.31873 3.90805 5.89011L3.91165 6.06522L3.93065 6.52064L3.46424 6.6702C2.19663 7.07667 1.33333 8.16805 1.33333 9.40659C1.33333 10.9553 2.67125 12.2235 4.35885 12.3037L4.52874 12.3077H5.2C5.56819 12.3077 5.86667 12.5832 5.86667 12.9231C5.86667 13.2346 5.61586 13.4921 5.29046 13.5328L5.2 13.5385H4.52874C2.02961 13.5385 0 11.6905 0 9.40659C0 7.82724 0.979743 6.41944 2.46927 5.72559L2.57867 5.67631L2.58903 5.49478C2.80734 2.48979 5.49633 0.103461 8.81704 0.00327555L9.03448 0Z" fill="#2D2D2D"/>
<path d="M10.0411 7.09502L10.1158 7.1546L12.7825 9.61614C13.0429 9.85646 13.0429 10.2461 12.7825 10.4864C12.5458 10.7049 12.1755 10.7248 11.9145 10.546L11.8397 10.4864L10.3111 9.07487V15.3846C10.3111 15.7245 10.0126 16 9.64444 16C9.30694 16 9.02801 15.7685 8.98386 15.4681L8.97778 15.3846V9.07487L7.44918 10.4864C7.2125 10.7049 6.84213 10.7248 6.58115 10.546L6.50637 10.4864C6.26969 10.268 6.24817 9.92607 6.44182 9.68516L6.50637 9.61614L9.17304 7.1546C9.40972 6.93613 9.78009 6.91626 10.0411 7.09502ZM9.03448 0C12.3107 0 15.0302 2.22812 15.4409 5.13785L15.4569 5.27426L15.4713 5.27473C17.9046 5.27473 19.8929 7.02674 19.9958 9.22722L20 9.40659C20 11.3794 18.4785 13.0935 16.419 13.4963L16.2244 13.5302L16.1155 13.5385H14.0889C13.7207 13.5385 13.4222 13.2629 13.4222 12.9231C13.4222 12.6115 13.673 12.3541 13.9984 12.3133L14.0889 12.3077H16.0524L16.1673 12.2873C17.5481 12.006 18.5872 10.8757 18.6623 9.55928L18.6667 9.40659C18.6667 7.80626 17.2381 6.50549 15.4713 6.50549C15.3502 6.50549 15.2308 6.51158 15.1133 6.52365L14.9388 6.54625L14.1685 6.6668L14.1587 5.75264C14.0788 3.23978 11.8114 1.23077 9.03448 1.23077C6.2012 1.23077 3.90805 3.31873 3.90805 5.89011L3.91165 6.06522L3.93065 6.52064L3.46424 6.6702C2.19663 7.07667 1.33333 8.16805 1.33333 9.40659C1.33333 10.9553 2.67125 12.2235 4.35885 12.3037L4.52874 12.3077H5.2C5.56819 12.3077 5.86667 12.5832 5.86667 12.9231C5.86667 13.2346 5.61586 13.4921 5.29046 13.5328L5.2 13.5385H4.52874C2.02961 13.5385 0 11.6905 0 9.40659C0 7.82724 0.979743 6.41944 2.46927 5.72559L2.57867 5.67631L2.58903 5.49478C2.80734 2.48979 5.49633 0.103461 8.81704 0.00327555L9.03448 0Z" fill="black" fill-opacity="0.2"/>
<path d="M10.0411 7.09502L10.1158 7.1546L12.7825 9.61614C13.0429 9.85646 13.0429 10.2461 12.7825 10.4864C12.5458 10.7049 12.1755 10.7248 11.9145 10.546L11.8397 10.4864L10.3111 9.07487V15.3846C10.3111 15.7245 10.0126 16 9.64444 16C9.30694 16 9.02801 15.7685 8.98386 15.4681L8.97778 15.3846V9.07487L7.44918 10.4864C7.2125 10.7049 6.84213 10.7248 6.58115 10.546L6.50637 10.4864C6.26969 10.268 6.24817 9.92607 6.44182 9.68516L6.50637 9.61614L9.17304 7.1546C9.40972 6.93613 9.78009 6.91626 10.0411 7.09502ZM9.03448 0C12.3107 0 15.0302 2.22812 15.4409 5.13785L15.4569 5.27426L15.4713 5.27473C17.9046 5.27473 19.8929 7.02674 19.9958 9.22722L20 9.40659C20 11.3794 18.4785 13.0935 16.419 13.4963L16.2244 13.5302L16.1155 13.5385H14.0889C13.7207 13.5385 13.4222 13.2629 13.4222 12.9231C13.4222 12.6115 13.673 12.3541 13.9984 12.3133L14.0889 12.3077H16.0524L16.1673 12.2873C17.5481 12.006 18.5872 10.8757 18.6623 9.55928L18.6667 9.40659C18.6667 7.80626 17.2381 6.50549 15.4713 6.50549C15.3502 6.50549 15.2308 6.51158 15.1133 6.52365L14.9388 6.54625L14.1685 6.6668L14.1587 5.75264C14.0788 3.23978 11.8114 1.23077 9.03448 1.23077C6.2012 1.23077 3.90805 3.31873 3.90805 5.89011L3.91165 6.06522L3.93065 6.52064L3.46424 6.6702C2.19663 7.07667 1.33333 8.16805 1.33333 9.40659C1.33333 10.9553 2.67125 12.2235 4.35885 12.3037L4.52874 12.3077H5.2C5.56819 12.3077 5.86667 12.5832 5.86667 12.9231C5.86667 13.2346 5.61586 13.4921 5.29046 13.5328L5.2 13.5385H4.52874C2.02961 13.5385 0 11.6905 0 9.40659C0 7.82724 0.979743 6.41944 2.46927 5.72559L2.57867 5.67631L2.58903 5.49478C2.80734 2.48979 5.49633 0.103461 8.81704 0.00327555L9.03448 0Z" fill="black" fill-opacity="0.2"/>
</svg>
