<svg width="28" height="28" viewBox="0 0 28 28" fill="none" xmlns="http://www.w3.org/2000/svg">
<g clip-path="url(#clip0_903_35233)">
<path d="M18.5 22C22.083 22 25 19.0863 25 15.5C25 11.9137 22.083 9 18.5 9C14.917 9 12 11.917 12 15.5C12 16.76 12.3576 17.974 13.0401 19.0273L12.187 21.2978C12.1214 21.4684 12.1575 21.6588 12.2789 21.7966C12.4003 21.9344 12.584 21.9934 12.7612 21.9508L15.5404 21.2913C16.4493 21.7539 17.4697 22 18.5 22Z" fill="white"/>
<path d="M1.2 9.5C1.2 13.5284 4.4754 16.8 8.5 16.8C9.55512 16.8 10.6005 16.5703 11.5513 16.1352L14.0515 16.7286C14.0521 16.7287 14.0526 16.7288 14.0531 16.7289C14.5226 16.8414 15.0073 16.6819 15.3214 16.3254C15.6338 15.9707 15.7344 15.469 15.561 15.0142L14.8456 13.1102C15.4729 12.0114 15.8 10.7753 15.8 9.5C15.8 5.47513 12.5249 2.2 8.5 2.2C4.4754 2.2 1.2 5.47159 1.2 9.5Z" fill="white" stroke="#4AC966" stroke-width="1.6"/>
</g>
<defs>
<clipPath id="clip0_903_35233">
<rect width="27.9964" height="28" fill="white" transform="translate(0.00195312)"/>
</clipPath>
</defs>
</svg>
