<svg width="81" height="40" viewBox="0 0 81 40" fill="none" xmlns="http://www.w3.org/2000/svg">
<path d="M41.2123 35.725C41.2123 36.4205 41.5766 37.127 42.1646 37.4167L41.8925 37.7721C41.4734 37.5549 41.1619 37.1314 40.9929 36.6224C40.824 37.1622 40.4948 37.6164 40.0494 37.8467L39.7773 37.4869C40.3873 37.1885 40.7669 36.449 40.7669 35.7272V35.0865H41.2123V35.7272V35.725ZM43.4789 36.6772H42.869V38.6674H42.4235V34.7617H42.869V36.3108H43.4789V36.6794V36.6772Z" fill="#F29B8F"/>
<path d="M45.1144 37.5732C45.4654 37.5513 45.8187 37.5293 46.1522 37.4832L46.1829 37.808C45.3228 37.955 44.3969 37.9681 43.686 37.9681L43.6289 37.6017C43.9405 37.6017 44.3003 37.6017 44.6668 37.5886V37.2068C44.2257 37.1366 43.9361 36.8689 43.9361 36.4937C43.9361 36.057 44.3245 35.7674 44.8928 35.7674C45.461 35.7674 45.845 36.057 45.845 36.4937C45.845 36.8754 45.5554 37.1387 45.1144 37.2068V37.5732ZM46.071 35.5743H43.7101V35.2144H44.6711V34.769H45.1166V35.2144H46.0732V35.5743H46.071ZM44.8949 36.8798C45.2065 36.8798 45.4216 36.7328 45.4216 36.4915C45.4216 36.2501 45.2043 36.1075 44.8949 36.1075C44.5856 36.1075 44.3618 36.2545 44.3618 36.4915C44.3618 36.7284 44.579 36.8798 44.8949 36.8798ZM46.8236 38.6659H46.3738V34.7559H46.8236V38.6659Z" fill="#F29B8F"/>
<path d="M49.4758 36.9588C49.0435 36.8074 48.732 36.5002 48.563 36.1228C48.3897 36.5419 48.0606 36.8798 47.5976 37.04L47.3672 36.6889C47.9728 36.4805 48.3282 35.967 48.3282 35.4383V35.3593H47.501V34.9994H49.5899V35.3593H48.7759V35.4317C48.7759 35.9166 49.1094 36.4059 49.693 36.6078L49.4714 36.9544L49.4758 36.9588ZM47.975 37.2879H50.6102V38.6681H50.1648V37.6478H47.975V37.2879ZM50.6102 34.7581V37.0949H50.1648V36.1075H49.4802V35.7389H50.1648V34.7559H50.6102V34.7581Z" fill="#F29B8F"/>
<path d="M53.1383 35.1725C53.1383 36.3069 52.6534 37.3097 51.3786 37.9547L51.1328 37.6124C52.0895 37.1231 52.6029 36.4364 52.6951 35.5367H51.3281V35.1725H53.1405H53.1383ZM54.751 36.6733H54.1586V38.6635H53.7132V34.7578H54.1586V36.3025H54.751V36.6733Z" fill="#F29B8F"/>
<path d="M56.3742 36.0022C56.3742 36.6165 56.7538 37.2528 57.3594 37.5161L57.1224 37.8628C56.677 37.6675 56.3347 37.266 56.157 36.7767C55.9836 37.2967 55.6414 37.7202 55.1872 37.9265L54.9414 37.5842C55.5558 37.3077 55.9266 36.6451 55.9266 36V35.774H55.0621V35.4141H55.9266V34.8349H56.372V35.4141H57.219V35.774H56.372V36L56.3742 36.0022ZM58.1164 38.6615H57.6666V34.7559H58.1164V38.6615Z" fill="#F29B8F"/>
<path d="M60.1015 35.8895C60.1015 36.539 60.503 37.2126 61.113 37.4737L60.8672 37.8248C60.413 37.6251 60.062 37.2017 59.8799 36.6948C59.7065 37.239 59.3576 37.7019 58.8991 37.9235L58.6445 37.5681C59.2501 37.2872 59.6517 36.561 59.6517 35.8895V35.5165H58.7828V35.1479H60.9726V35.5165H60.1037V35.8895H60.1015ZM61.8744 38.6674H61.4246V34.7617H61.8744V38.6674Z" fill="#F29B8F"/>
<path d="M65.9694 37.8492V38.2178H62.4258V37.8492H63.3561V37.011H62.7286V36.6511H63.2903V35.4575H62.7154V35.0977H65.6512V35.4575H65.0764V36.6511H65.6381V37.011H65.0105V37.8492H65.9672H65.9694ZM63.7379 36.6511H64.6375V35.4575H63.7379V36.6511ZM63.8037 37.8492H64.5739V37.011H63.8037V37.8492Z" fill="#F29B8F"/>
<path d="M11.4802 15.9781C11.4494 15.9781 11.4275 15.9781 11.4034 15.9781H11.2191C11.2191 15.9781 11.2147 15.9781 11.2103 15.9781C10.9294 15.9781 10.7012 15.7499 10.7012 15.469C10.7012 15.2276 10.8746 15.0346 11.1006 14.9819C11.1006 14.9797 11.1006 14.9753 11.1006 14.9731L26.1 12.0219C29.8784 11.2781 32.3798 7.66429 31.7413 3.86615L31.0918 0L8.61894 4.41909C8.58383 4.42567 8.54873 4.43445 8.51362 4.44103C4.87347 5.23094 -0.313587 9.03346 0.318339 16.2589C0.693544 20.5529 2.66173 23.028 4.24593 24.3511C6.84165 26.5167 9.78186 26.8195 11.2191 26.8195C11.3748 26.8195 11.5131 26.8173 11.6316 26.8108H35.5943L33.7775 15.9781H11.4802Z" fill="#D9281E"/>
<path d="M35.9896 29.168H4.03125L5.85023 40.0007H37.8085L35.9896 29.168Z" fill="#D9281E"/>
<path d="M41.445 24.2852H40.3633V32.6867H41.445V24.2852Z" fill="#D9281E"/>
<path d="M43.2031 24.2852H44.2849L49.1165 31.0981V24.2852H50.1982V32.6867H49.1165L44.2849 25.8211V32.6867H43.2031V24.2852Z" fill="#F29B8F"/>
<path d="M51.6016 24.2852H55.0289C55.6564 24.2852 56.2181 24.3927 56.6943 24.5989C57.1594 24.8161 57.5478 25.108 57.8725 25.4744C58.1753 25.8518 58.4123 26.2972 58.5637 26.8041C58.7151 27.3241 58.7897 27.8748 58.7897 28.4695C58.7897 29.097 58.6932 29.6587 58.4979 30.1678C58.3026 30.6878 58.0217 31.1288 57.6663 31.4974C57.2977 31.8639 56.8544 32.1557 56.3366 32.3729C55.8078 32.5792 55.2132 32.6867 54.5637 32.6867H51.6016V24.2852ZM52.6833 31.8002H54.544C55.042 31.8002 55.4853 31.7037 55.8736 31.5304C56.262 31.357 56.5867 31.12 56.8676 30.8063C57.1375 30.5035 57.3437 30.1458 57.4951 29.7355C57.6356 29.3362 57.7124 28.9039 57.7124 28.4366C57.7124 27.9692 57.6465 27.5611 57.539 27.1508C57.4205 26.7624 57.2472 26.4157 57.0102 26.1129C56.7733 25.8321 56.4683 25.5929 56.1128 25.4217C55.7464 25.2594 55.301 25.1738 54.8051 25.1738H52.6855V31.8002H52.6833Z" fill="#F29B8F"/>
<path d="M65.6916 27.9516V28.8381H61.0114V31.8112H66.0054V32.6867H59.9297V24.2852H65.8979V25.1716H61.0114V27.9516H65.6916Z" fill="#F29B8F"/>
<path d="M66.7626 32.6867L69.659 28.5243L66.7188 24.2852H67.908L70.2646 27.6686L72.6211 24.2852H73.8104L70.8592 28.5243L73.7687 32.6867H72.5575L70.2646 29.3888L67.9716 32.6867H66.7626Z" fill="#F29B8F"/>
<path d="M40.1917 8.35664C40.376 8.52998 40.5911 8.69235 40.8302 8.8218C41.0672 8.96223 41.3173 9.06975 41.5872 9.17946C41.8461 9.276 42.1073 9.3528 42.3881 9.40765C42.647 9.45154 42.9081 9.48225 43.1561 9.48225C43.7178 9.47128 44.183 9.3528 44.5406 9.1246C44.8873 8.88763 45.0584 8.51901 45.0584 8.02312C45.0584 7.81687 45.0145 7.63475 44.929 7.46141C44.8324 7.31001 44.7008 7.15861 44.5406 7.02915C44.3673 6.91067 44.15 6.80315 43.9131 6.69344C43.6651 6.60787 43.3843 6.50913 43.0815 6.42356C42.5307 6.27216 42.0546 6.10979 41.664 5.93645C41.2537 5.77408 40.929 5.58977 40.6701 5.37474C40.4002 5.16849 40.2049 4.93151 40.0864 4.6726C39.957 4.41369 39.8911 4.11089 39.8911 3.76421C39.8911 3.39558 39.9657 3.07304 40.1281 2.78999C40.2795 2.50913 40.4857 2.28094 40.7666 2.08785C41.0255 1.91451 41.3503 1.77408 41.7189 1.67754C42.0765 1.58977 42.4649 1.53711 42.8752 1.53711C43.3843 1.53711 43.8911 1.62268 44.4002 1.79602C44.8983 1.98033 45.3722 2.23925 45.8154 2.57496L45.3832 3.35389C45.2208 3.23541 45.0475 3.11473 44.8544 3.00721C44.6591 2.8997 44.455 2.80096 44.2488 2.71539C44.0316 2.62981 43.8165 2.56399 43.5993 2.50913C43.3711 2.46525 43.1561 2.43234 42.9498 2.42356C42.7019 2.42356 42.4627 2.43453 42.2367 2.47841C41.9997 2.5223 41.7825 2.5969 41.5982 2.69564C41.4029 2.80315 41.2515 2.94358 41.144 3.10595C41.0255 3.27929 40.9707 3.49432 40.9707 3.73349C40.9707 3.97266 41.0036 4.16574 41.0782 4.31714C41.144 4.49048 41.2625 4.63091 41.4358 4.7494C41.5872 4.87885 41.8023 4.99734 42.0634 5.09608C42.3223 5.20359 42.6361 5.3133 43.0266 5.42082C43.5028 5.57222 43.935 5.71264 44.3234 5.86404C44.7008 6.02641 45.0255 6.19975 45.3064 6.39504C45.5653 6.60129 45.7715 6.82729 45.9229 7.07523C46.0634 7.33415 46.1402 7.62597 46.1402 7.95071C46.1402 8.38297 46.0634 8.76256 45.912 9.06536C45.7496 9.36816 45.5324 9.6161 45.2625 9.81138C44.9816 10.0067 44.6569 10.1471 44.2795 10.2436C43.8911 10.3292 43.4786 10.3731 43.0244 10.3731C42.4408 10.3731 41.8681 10.2765 41.2954 10.0813C40.7118 9.87501 40.1808 9.59416 39.7266 9.22773L40.1917 8.36322V8.35664Z" fill="#D9281E"/>
<path d="M46.5508 5.93594C46.5508 5.26672 46.6583 4.65015 46.8975 4.09722C47.1125 3.55745 47.4285 3.09228 47.8168 2.70171C48.2074 2.33309 48.6506 2.04127 49.1684 1.82624C49.6775 1.63095 50.2173 1.52344 50.8009 1.52344C51.3846 1.52344 51.9353 1.63095 52.4553 1.82624C52.9644 2.04346 53.4186 2.33529 53.807 2.70171C54.1865 3.09009 54.4893 3.55525 54.7263 4.09722C54.9435 4.64796 55.062 5.26452 55.062 5.93594C55.062 6.60737 54.9435 7.24368 54.7263 7.78564C54.4893 8.33638 54.1865 8.80155 53.807 9.18114C53.4186 9.55854 52.9644 9.85256 52.4553 10.0676C51.9375 10.2629 51.3846 10.3704 50.8009 10.3704C50.2173 10.3704 49.6753 10.2629 49.1684 10.0676C48.6484 9.85037 48.2052 9.55854 47.8168 9.18114C47.4285 8.80374 47.1147 8.33858 46.8975 7.78564C46.6605 7.24587 46.5508 6.62931 46.5508 5.93594ZM47.6325 5.93594C47.6325 6.5196 47.7181 7.02865 47.9024 7.4609C48.0757 7.90413 48.3017 8.27275 48.6045 8.57555C48.8964 8.87835 49.2321 9.10435 49.6204 9.26672C49.9891 9.41812 50.3884 9.49491 50.7987 9.49491C51.209 9.49491 51.5996 9.41812 51.988 9.26672C52.3676 9.10435 52.7121 8.87835 53.0148 8.57555C53.3067 8.27275 53.5458 7.90413 53.728 7.4609C53.9013 7.02865 53.9869 6.5196 53.9869 5.93594C53.9869 5.35229 53.8903 4.87615 53.706 4.43293C53.5107 4.00067 53.2738 3.62108 52.971 3.31828C52.6682 3.02645 52.3215 2.80045 51.9441 2.63808C51.5557 2.48668 51.1761 2.41208 50.7987 2.41208C50.4213 2.41208 50.0308 2.48888 49.6621 2.63808C49.2738 2.80045 48.9381 3.02645 48.6462 3.31828C48.3434 3.62108 48.0955 4.00067 47.9112 4.43293C47.7159 4.87615 47.6303 5.37423 47.6303 5.93594" fill="#F29B8F"/>
<path d="M55.5178 5.94692C55.5178 5.30841 55.6253 4.71378 55.8535 4.17401C56.0708 3.63424 56.3626 3.16908 56.751 2.76754C57.1284 2.37917 57.5825 2.07637 58.1135 1.84818C58.6314 1.63095 59.2062 1.52344 59.8118 1.52344C60.5469 1.52344 61.2403 1.69678 61.8766 2.04127C62.5041 2.39892 63.0219 2.88383 63.4454 3.51137L62.6665 4.07308C62.3637 3.58597 61.9643 3.18663 61.4772 2.86189C60.9791 2.55909 60.4065 2.39672 59.7789 2.39672C59.3247 2.39672 58.9034 2.49327 58.5129 2.67758C58.1245 2.87286 57.7888 3.1208 57.5079 3.43457C57.2271 3.75931 56.9989 4.13671 56.8475 4.56019C56.6742 4.99244 56.5996 5.45761 56.5996 5.94472C56.5996 6.43183 56.6851 6.90797 56.8585 7.34022C57.0208 7.77248 57.2578 8.14988 57.5606 8.46365C57.8634 8.78839 58.2211 9.02536 58.6533 9.20967C59.0636 9.38301 59.5288 9.47955 60.0378 9.47955C60.6215 9.47955 61.1415 9.31718 61.5957 9.01439C62.0389 8.71159 62.4163 8.30128 62.7301 7.78125L63.4871 8.37588C63.0768 8.99244 62.5677 9.46858 61.9402 9.83501C61.3127 10.1817 60.5996 10.3638 59.8096 10.3638C59.237 10.3638 58.695 10.2563 58.1772 10.061C57.6593 9.84379 57.2052 9.55196 56.8146 9.17456C56.4152 8.784 56.1015 8.32102 55.8733 7.76809C55.6363 7.22832 55.5156 6.62272 55.5156 5.94033" fill="#F29B8F"/>
<path d="M65.3942 1.75195H64.3125V10.1535H65.3942V1.75195Z" fill="#F29B8F"/>
<path d="M74.4531 1.75195H75.5349V9.26704H80.3028V10.1535H74.4531V1.75195Z" fill="#F29B8F"/>
<path d="M70.5485 1.75195H69.447L66.1602 10.1535H67.2836L69.9978 3.15843L72.712 10.1535H73.8376L70.5485 1.75195Z" fill="#F29B8F"/>
<path d="M45.6719 13.4004H46.7975L49.5095 20.4064L52.2237 13.4004H53.3493L50.0624 21.8019H48.9588L45.6719 13.4004Z" fill="#D9281E"/>
<path d="M60.1445 13.4004H61.2263V20.9155H65.9942V21.8019H60.1445V13.4004Z" fill="#F29B8F"/>
<path d="M69.8986 22.0189C69.3786 22.0189 68.9156 21.9333 68.4922 21.771C68.0599 21.5976 67.6803 21.3607 67.3775 21.0688C67.0638 20.766 66.8268 20.4084 66.6534 19.9981C66.4801 19.5987 66.3945 19.1665 66.3945 18.6903V13.4023H67.4763V18.5806C67.4763 18.9054 67.5311 19.2191 67.6386 19.511C67.7352 19.8138 67.8866 20.0836 68.1038 20.3118C68.2991 20.5488 68.558 20.7221 68.8608 20.8626C69.1526 20.992 69.4993 21.0688 69.8986 21.0688C70.298 21.0688 70.6447 20.9942 70.9475 20.8626C71.2393 20.7221 71.4872 20.5488 71.6935 20.3118C71.8888 20.0858 72.0489 19.8138 72.1587 19.511C72.2552 19.2191 72.3101 18.9054 72.3101 18.5806V13.4023H73.3918V18.6903C73.3918 19.1665 73.3062 19.5987 73.1329 19.9981C72.9595 20.4084 72.7226 20.766 72.4198 21.0688C72.106 21.3607 71.7396 21.5976 71.3183 21.771C70.886 21.9333 70.4099 22.0189 69.9008 22.0189" fill="#F29B8F"/>
<path d="M80.2033 17.0669V17.9533H75.5209V20.9264H80.5171V21.8019H74.4414V13.4004H80.4096V14.2868H75.5209V17.0669H80.2033Z" fill="#F29B8F"/>
<path d="M56.0546 13.4004H54.951L51.6641 21.8019H52.7897L55.5039 14.8069L58.2159 21.8019H59.3415L56.0546 13.4004Z" fill="#F29B8F"/>
</svg>
