<svg width="44" height="38" viewBox="0 0 44 38" fill="none" xmlns="http://www.w3.org/2000/svg">
<g clip-path="url(#clip0_604_94484)">
<path d="M31.0115 32.2117C24.2626 32.2117 18.7925 33.343 18.7925 34.7362C18.7925 36.1293 24.2626 37.2607 31.0115 37.2607C37.7605 37.2607 43.2306 36.1293 43.2306 34.7362C43.2306 33.343 37.7565 32.2117 31.0115 32.2117Z" fill="url(#paint0_radial_604_94484)"/>
<path d="M29.5563 9.55389C31.1261 5.31008 28.6919 0.764257 24.4687 0.0998988C17.8871 -0.934889 14.9947 6.31266 17.3771 10.5887C19.8234 14.9815 25.6998 16.1452 25.7436 22.9699C25.7675 27.4432 21.9429 29.4122 19.4091 29.3075C17.9349 29.2471 16.9071 28.5707 16.8393 27.2701C16.5923 24.4074 20.0345 23.8437 20.0345 23.8437C17.2497 23.7752 12.2975 24.4436 11.6163 28.768C10.8115 33.8735 16.9787 35.7175 21.8871 32.1703C26.8751 28.5667 27.7157 23.3484 25.7436 18.2631C24.8951 16.0767 22.7437 13.4153 21.417 11.7483C20.3612 10.4236 19.5087 8.45068 20.3851 6.60658C21.8512 3.51832 26.7675 3.00697 28.3492 6.70322C28.8193 7.80243 28.7795 8.8694 28.7715 9.23178C28.7675 9.50562 28.7595 9.72707 28.8034 9.86395C28.9229 10.2666 29.3332 10.0935 29.409 9.92031C29.4887 9.7472 29.4966 9.72303 29.5603 9.54588L29.5563 9.55389Z" fill="url(#paint1_linear_604_94484)"/>
<path d="M37.4778 0.0767179C35.7486 0.427016 33.657 2.30333 33.677 5.91099C33.677 6.34987 33.7925 6.46663 33.9001 6.37805C33.9399 6.34181 34.0116 6.21297 34.0116 6.21297C34.0116 6.21297 34.5614 4.98894 36.1152 4.09508C37.9917 3.016 38.8801 3.77699 39.9996 2.66973C41.1151 1.57454 39.8442 -0.414505 37.4778 0.0767179Z" fill="url(#paint2_linear_604_94484)"/>
<path d="M40.4417 8.1376C40.4417 8.1376 41.0353 7.66649 40.5572 7.05851C39.7366 6.14854 37.8003 7.18333 37.0712 8.44362C37.0712 8.44362 36.9995 8.56037 37.0274 8.65294C37.0433 8.70129 37.0951 8.72546 37.1987 8.74559C37.7207 8.84221 38.0035 9.03545 38.625 9.40186C39.2505 9.76828 40.3182 10.6461 41.1747 9.92529C41.9915 9.24081 41.3899 8.14964 40.4497 8.1376L40.4417 8.1376Z" fill="url(#paint3_linear_604_94484)"/>
<path d="M17.3146 17.0441L17.3504 17.0158L17.3504 16.9998L17.3146 17.0441Z" fill="#666666"/>
<path d="M6.34647 13.7022L6.37435 13.6257C6.3624 13.6539 6.35443 13.678 6.34647 13.7022Z" fill="#666666"/>
<path d="M8.08745 13.6538C8.03969 13.5169 8.02377 13.4444 7.88828 13.3799C7.78071 13.3236 7.62932 13.2753 7.48589 13.2713C7.24685 13.2672 6.92414 13.388 6.72893 13.5249C6.81657 13.2955 6.90422 13.0578 6.97992 12.8243C7.04366 12.6311 7.15521 12.4821 7.23889 12.2969C7.38629 11.9707 7.53769 11.6647 7.70501 11.3507C7.84445 11.0849 7.99585 10.8514 8.10737 10.5856C8.21097 10.34 8.40225 10.183 8.52569 9.94143C8.56953 9.86494 8.69705 9.77633 8.73289 9.6958C8.76873 9.62732 9.00377 9.36965 8.99985 9.30521C8.88825 9.26098 8.57353 9.61123 8.50185 9.68375L8.51377 9.64745C8.47393 9.6958 8.34249 9.77633 8.30265 9.82468C8.18705 9.96956 8.08745 10.1226 7.97593 10.2635C7.84445 10.4366 7.76876 10.5615 7.62533 10.7225C7.48988 10.8756 7.30263 11.1333 7.211 11.3185C7.0835 11.5802 6.97195 11.7815 6.81657 12.0231C6.6851 12.2244 6.60542 12.4136 6.50582 12.623C6.39029 12.8606 6.27475 13.082 6.21897 13.3357C6.1632 13.5813 6.00383 13.8189 5.92017 14.0605C5.85642 14.2416 5.86041 14.4148 5.84049 14.5959C5.80861 14.8818 5.80861 15.1234 5.89228 15.3932C5.97993 15.667 6.28272 15.8643 6.60144 15.8039C6.90422 15.7435 7.211 15.4536 7.43012 15.2603C7.85242 14.8859 8.25881 14.1571 8.08745 13.6578L8.08745 13.6538ZM6.95601 14.8979C6.89625 14.9945 6.79665 15.1798 6.65721 15.2039C6.48192 15.2322 6.43411 15.0751 6.41419 14.9664C6.3624 14.7047 6.45801 14.4228 6.54965 14.1571L6.58152 14.0605C6.5855 14.0363 6.59745 14.0121 6.60941 13.9879L6.58152 14.0605C6.54965 14.1852 6.60144 14.2577 6.7608 14.2497C6.86438 14.2456 7.01179 14.1369 7.09545 14.1651C7.33849 14.2456 7.03569 14.7771 6.95203 14.902L6.95601 14.8979Z" fill="#666666"/>
<path d="M17.6492 17.7645C17.7528 17.68 17.9799 17.5551 18.0357 17.7485C18.0556 17.8088 18.0037 17.9336 17.9799 17.99C17.96 18.0464 17.8723 18.139 17.8763 18.1953C17.8842 18.2719 17.9878 18.292 18.0436 18.2799C18.1393 18.2638 18.199 18.1953 18.2707 18.1269C18.4181 17.9819 18.4779 17.7847 18.5536 17.5914C18.6053 17.4504 18.6133 17.2532 18.4978 17.1565C18.3982 17.076 18.199 17.0438 18.0755 17.0559C17.956 17.0679 17.7886 17.1565 17.7169 17.2491C17.6213 17.2129 17.6532 17.1968 17.6811 17.1203C17.697 17.0599 17.6811 17.0197 17.6133 16.9874C17.5456 16.9552 17.4181 16.9593 17.3504 17.0156C17.3305 17.0841 17.3265 17.1565 17.3145 17.233C17.2866 17.382 17.2349 17.531 17.195 17.6759C17.1472 17.8451 17.0476 18.0141 16.964 18.1672C17.2628 18.4852 17.462 17.9135 17.6492 17.7645Z" fill="#666666"/>
<path d="M5.03977 12.8607C4.84056 12.7077 4.50591 12.6876 4.2589 12.6714L4.17524 12.6714C4.235 12.5949 4.29476 12.5184 4.3585 12.4499C4.50591 12.2728 4.59356 11.999 4.66527 11.7896C4.71308 11.6528 4.77284 11.5279 4.78479 11.3829C4.81268 11.081 4.74893 10.7669 4.55372 10.5213C4.40631 10.3361 4.17922 10.1831 3.92823 10.1549C3.86847 10.1509 3.76886 10.163 3.70113 10.1549C3.62942 10.1549 3.55373 10.1549 3.48201 10.1589C3.08361 10.2033 2.64935 10.465 2.47804 10.775C2.37047 10.9723 2.38242 11.2904 2.57365 11.4394C2.68122 11.5239 2.88043 11.6447 3.02784 11.6367C3.14736 11.6367 3.27883 11.5279 3.23501 11.4031C3.21907 11.3467 3.14736 11.2783 3.11947 11.2219C3.0876 11.1575 3.05174 11.1051 3.04377 11.0327C3.03182 10.8918 3.32664 10.7509 3.47405 10.7146C3.66926 10.6663 3.99197 10.779 4.11149 10.94C4.15532 11.0045 4.17922 11.1253 4.18719 11.2018C4.21109 11.548 4.06767 11.9185 3.82862 12.1843C3.66926 12.3533 3.53381 12.5305 3.37445 12.6795C3.33062 12.7197 3.29078 12.756 3.24696 12.7922C3.08361 12.8486 2.93222 12.9009 2.77285 12.9815C2.68122 13.0258 2.58959 13.0701 2.50593 13.1345C2.38242 13.2271 2.23501 13.2432 2.20314 13.4042C2.17924 13.521 2.239 13.6055 2.35055 13.6418C2.44218 13.674 2.50991 13.6499 2.59357 13.6338C2.64537 13.6216 2.67724 13.6338 2.72903 13.6096C2.83262 13.5653 2.92824 13.4807 3.03182 13.4284C3.15533 13.372 3.2868 13.3237 3.41429 13.2754C3.69715 13.1748 4.08759 13.0701 4.39436 13.1345C4.77682 13.215 4.72901 13.7948 4.6573 14.0606C4.6334 14.1451 4.62543 14.2538 4.57364 14.3464C4.52981 14.431 4.45013 14.4954 4.41029 14.58C4.35452 14.6806 4.31866 14.7853 4.26289 14.886C4.1354 15.1034 3.97604 15.3047 3.8366 15.5141C3.72902 15.6752 3.58161 15.804 3.44217 15.9489C3.33062 16.0616 3.23102 16.2066 3.12345 16.3234C2.94417 16.5126 2.737 16.6777 2.54975 16.8589C2.40234 17.0039 2.27884 17.1609 2.11948 17.2937C1.87247 17.5072 1.65733 17.7488 1.3904 17.942C1.29478 18.0145 1.17526 18.0587 1.08761 18.1393C0.896382 18.3205 0.693194 18.4856 0.470088 18.6386C0.231047 18.7956 0.00794102 18.9808 -2.70351e-05 19.2667C-0.00401106 19.5405 0.3426 19.5928 0.585625 19.6653C0.820686 19.7378 1.05176 19.609 1.24697 19.4761C1.42625 19.3553 1.58163 19.2063 1.76092 19.0855C1.81669 19.0452 1.88044 19.0251 1.93621 18.9808C2.01191 18.9164 2.05972 18.8278 2.13143 18.7554C2.20314 18.6828 2.29477 18.6346 2.37047 18.5701C2.47804 18.4775 2.59357 18.393 2.67724 18.2842C2.7609 18.1795 2.86051 18.103 2.94816 17.9983C3.09557 17.8252 3.2868 17.6884 3.43421 17.5112C3.65333 17.2535 3.86847 16.9877 4.06767 16.7139C4.27484 16.4321 4.43818 16.1342 4.63738 15.8523C4.79674 15.6268 4.89236 15.3692 5.01985 15.1316C5.07961 15.0188 5.14734 14.9101 5.2071 14.7974C5.34654 14.5357 5.37045 14.2418 5.40232 13.9599C5.41427 13.8552 5.4302 13.7505 5.41028 13.6378C5.35849 13.3398 5.3067 13.062 5.04774 12.8607L5.03977 12.8607Z" fill="#666666"/>
<path d="M9.04377 17.6319C8.85657 17.6884 8.65737 17.8574 8.43825 17.8332C8.36257 17.8252 8.27489 17.793 8.20321 17.7648C8.03985 17.7004 8.03585 17.5434 8.05577 17.4186C8.07969 17.2817 8.15937 17.1125 8.23105 16.9917C8.28681 16.8911 8.38249 16.7904 8.46217 16.7059C8.62153 16.5328 8.80473 16.3757 9.01993 16.2509C9.30273 16.0899 9.68121 15.8684 10.0598 15.8885C10.1872 15.8965 10.2908 15.9489 10.3665 16.0536C10.4023 16.1019 10.4502 16.263 10.5139 16.2589L10.5936 16.2388C10.6215 16.2106 10.6335 16.1261 10.6454 16.0899L10.6733 16.0093C10.6773 15.9771 10.6693 15.9569 10.6773 15.9248C10.6932 15.8764 10.6932 15.8201 10.6653 15.7718C10.6494 15.7436 10.6255 15.6993 10.5816 15.663C10.49 15.5946 10.3665 15.5624 10.2669 15.514C10.1673 15.4658 10.0159 15.4819 9.90833 15.4859C9.68121 15.502 9.45017 15.5463 9.23505 15.6147C8.12353 15.9691 7.35856 16.8549 7.00398 17.7488C6.92828 17.9379 6.90438 18.1795 7.03585 18.3688C7.17131 18.562 7.43426 18.5983 7.6733 18.6305C7.8486 18.6507 8.11553 18.6385 8.27489 18.5983C8.40241 18.5661 8.51393 18.5138 8.63345 18.4735C8.74497 18.4372 8.79681 18.3768 8.90833 18.3245C9.11953 18.2158 9.28681 18.091 9.34257 17.8897C9.35857 17.8212 9.41033 17.7085 9.36649 17.6481C9.29881 17.5554 9.13145 17.6199 9.04777 17.6441L9.04377 17.6319Z" fill="#666666"/>
<path d="M12.3941 17.8171C12.5336 17.6601 12.5336 17.9259 12.5016 18.0225C12.426 18.248 12.2108 18.3487 12.3821 18.3889C12.4857 18.4131 12.6411 18.2641 12.6929 18.2077C12.8044 18.0869 12.8443 17.9662 12.912 17.8212C12.9678 17.6964 13.0276 17.5877 13.0515 17.4508C13.0714 17.338 13.0833 17.2132 13.0116 17.1247C12.9319 17.028 12.8084 17.0562 12.7008 17.1166C12.657 17.1407 12.6052 17.1649 12.5654 17.2011L12.5175 17.2615L12.4897 17.1931C12.4698 17.1247 12.414 17.1125 12.3543 17.0683C12.167 16.9474 11.9758 17.1086 11.8483 17.2455C11.7128 17.2172 11.7646 16.7945 11.5176 16.9757C11.418 17.0482 11.4539 17.169 11.4698 17.2615C11.5016 17.4789 11.4459 17.6682 11.3622 17.8816C11.3344 17.9662 11.3064 18.099 11.3264 18.1917C11.3742 18.4131 11.5774 18.0709 11.6332 17.9983C11.6849 17.9219 11.7646 17.8333 11.8164 17.7568C11.8642 17.6843 11.8443 17.6682 11.9399 17.6561C12.0555 17.64 12.0515 17.8171 12.0116 17.9219C11.9678 18.0346 11.8682 18.3406 12.0873 18.2198C12.2547 18.1272 12.2865 17.9581 12.406 17.8252L12.3941 17.8171Z" fill="#666666"/>
<path d="M16.717 18.1431C16.7687 18.1029 16.8007 17.8371 16.8047 17.7687C16.8126 17.6077 16.9043 17.1647 16.721 17.0721L16.6612 17.0963C16.6134 16.8466 16.0596 17.1124 15.9321 17.1809C15.6691 17.3257 15.3504 17.6278 15.2867 17.9177C15.215 18.2357 15.4779 18.3606 15.7608 18.3002C16.0317 18.2438 16.1871 18.0506 16.4182 17.9459C16.5098 17.974 16.5935 18.2318 16.717 18.1431ZM16.1911 17.7486C16.1273 17.7969 15.9043 17.966 15.8564 17.809C15.8246 17.7002 16.0357 17.5432 16.1074 17.503C16.215 17.4426 16.3664 17.4788 16.4381 17.354L16.4262 17.346L16.4461 17.346L16.4381 17.354L16.4421 17.354C16.466 17.4184 16.3863 17.5351 16.3544 17.5835C16.3146 17.6439 16.2548 17.7002 16.1911 17.7486Z" fill="#666666"/>
<path d="M14.9603 17.1248C14.8289 17.0403 14.6774 17.0322 14.5261 17.0282L14.5738 16.9598C14.6057 16.8872 14.7412 16.702 14.5301 16.7383C14.3667 16.7664 14.4105 16.7262 14.275 16.7947L14.2512 16.8027C14.1117 16.8148 14.0281 16.9235 13.9444 17.0161C13.7531 17.0322 13.4344 17.0684 13.4543 17.1409C13.4623 17.1772 13.5858 17.2335 13.6177 17.2496C13.6535 17.2657 13.6894 17.2738 13.7253 17.2778C13.6177 17.4228 13.5141 17.5758 13.4344 17.7046C13.3667 17.8093 13.3508 17.8576 13.283 17.9623C13.2432 18.0268 13.2033 18.0871 13.1635 18.1475C13.1317 18.1555 13.0997 18.1636 13.0798 18.1757L13.1157 18.2281C13.0957 18.2602 13.0758 18.2885 13.0639 18.3206C13.0001 18.4536 12.9285 18.5783 12.8687 18.7112C12.777 18.9206 12.5261 19.5527 12.4942 19.6574C12.4544 19.7823 12.4025 19.9715 12.3667 20.0963C12.2432 20.5432 12.1516 21.3163 12.1516 21.4371C12.1516 21.5579 12.1635 21.6787 12.1755 21.8075C12.1755 21.8518 12.1834 22.0653 12.2552 22.0813C12.3428 22.0974 12.3548 21.9002 12.3548 21.8559C12.3667 21.6223 12.4504 20.9701 12.4782 20.8694C12.5101 20.7446 12.55 20.5432 12.5938 20.4184C12.6655 20.2171 12.7133 20.0399 12.785 19.8346C12.8727 19.5849 12.9603 19.448 13.0599 19.2024C13.1077 19.0857 13.3109 18.7192 13.3547 18.6186C13.3667 18.5864 13.4145 18.5018 13.4822 18.3932C13.5221 18.4052 13.5539 18.4133 13.5699 18.4173C13.7133 18.4374 13.8607 18.4173 14.0001 18.3971C14.1396 18.373 14.287 18.369 14.4145 18.2885C14.5579 18.2039 14.7133 18.1475 14.8289 18.0227C14.9643 17.8737 15.0957 17.6805 15.1476 17.4791C15.1714 17.3905 15.1476 17.3503 15.1037 17.2858C15.0679 17.2295 15.0161 17.157 14.9563 17.1168L14.9603 17.1248ZM14.534 17.7892C14.3985 17.9583 14.1396 18.0711 13.9324 18.1153C13.8328 18.1354 13.7332 18.1475 13.6336 18.1636C13.777 17.9422 13.9563 17.6885 14.1157 17.5033C14.1794 17.4308 14.2352 17.3664 14.291 17.306C14.3627 17.314 14.4305 17.3221 14.4902 17.3543C14.5818 17.4027 14.6177 17.4308 14.6336 17.5436C14.6416 17.6321 14.5858 17.7207 14.534 17.7852L14.534 17.7892Z" fill="#666666"/>
<path d="M20.4657 16.6898C20.4339 16.6696 20.382 16.7743 20.3343 16.8508C20.1987 17.0723 19.9916 17.5434 19.4538 18.2238C19.4339 18.1514 19.3343 18.0587 19.3023 18.0064C19.2387 17.9017 19.1988 17.797 19.1868 17.6803C19.1669 17.5676 19.159 17.4468 19.1629 17.33C19.1629 17.2495 19.147 17.1086 19.0633 17.0521L19.0633 17.028C19.0115 16.9797 18.9438 16.9958 18.9079 17.028C18.8363 17.0964 18.8482 17.2495 18.8363 17.338C18.8163 17.4508 18.7805 17.5716 18.7844 17.6883C18.7844 17.7689 18.8163 17.8574 18.8323 17.9379C18.8482 18.0024 18.8801 18.0749 18.9399 18.1232C18.9996 18.1795 19.0474 18.2359 19.1231 18.2681C19.1828 18.2923 19.2904 18.3366 19.3701 18.3245C19.2944 18.4131 19.2227 18.5057 19.1351 18.6024C18.4179 19.4237 16.9916 20.5028 16.661 20.7645C16.3303 21.0262 16.3542 21.1189 16.6091 21.1994C16.8642 21.2799 17.0594 21.3161 18.0952 20.3941C19.6091 19.0573 20.1908 17.785 20.382 17.3984C20.5693 17.0119 20.5693 16.7542 20.4697 16.6858L20.4657 16.6898Z" fill="#666666"/>
<path d="M10.8169 17.0521C10.6973 16.7743 10.1953 17.1568 10.0798 17.2454C9.79294 17.4789 9.4423 17.9057 9.69334 18.3084C9.72126 18.3527 9.76502 18.4211 9.80886 18.4533C9.91646 18.5378 10.0479 18.5217 10.1634 18.5177C10.2989 18.5097 10.4344 18.5056 10.5539 18.4452C10.7212 18.3607 10.8805 18.2157 10.9403 18.0265C10.9722 17.9259 11.0001 17.8212 11.0399 17.7245C11.0559 17.6802 11.0718 17.64 11.0797 17.5957C11.0877 17.5151 11.0797 17.4346 11.0598 17.3581C11.0399 17.2494 10.9602 16.9474 10.8129 17.0561L10.8169 17.0521ZM10.7093 17.5877L10.7013 17.64C10.6614 17.8574 10.5021 18.091 10.2551 18.0345C10.1475 18.0064 10.1117 17.9299 10.1475 17.8252C10.1833 17.7084 10.3029 17.6601 10.4065 17.6037C10.4782 17.5594 10.6137 17.4507 10.6415 17.3662C10.6694 17.3903 10.6853 17.4266 10.6973 17.4588C10.7133 17.499 10.7133 17.5433 10.7093 17.5836L10.7093 17.5877Z" fill="#666666"/>
<path d="M11.2032 11.3266C11.0876 11.2743 10.9084 11.2219 10.7769 11.246C10.6295 11.2702 10.514 11.2743 10.3864 11.3467C10.1713 11.4635 10.0956 11.548 9.83269 11.7936C9.72509 11.8943 9.52988 12.0151 9.38244 12.0312C9.41036 11.85 9.48205 11.5118 9.60156 11.3266C9.68924 11.1856 9.73709 10.9038 9.84861 10.7549C9.91237 10.6663 9.93629 10.5978 9.98405 10.5213C10.3227 10.324 10.6534 10.1388 11.008 9.9576C11.2072 9.85694 11.3426 9.76841 11.5538 9.69588C11.7291 9.63953 11.9124 9.53078 12.0916 9.47443C12.247 9.42212 12.4064 9.36173 12.5577 9.30933C12.9442 9.1765 13.1792 9.15232 13.478 9.05166C13.749 8.96313 14 8.92683 14.2908 8.87047C14.4502 8.8383 14.5976 8.79803 14.7689 8.78194C14.8645 8.77386 15.5259 8.75777 15.47 8.68524C15.3704 8.55645 14.9442 8.53632 14.8486 8.53227C14.51 8.52419 14.1195 8.55645 13.8406 8.58062C13.2908 8.62889 12.9601 8.73764 12.4263 8.8826C11.9004 9.01948 11.3625 9.21272 10.8725 9.43821C10.7928 9.47443 10.7052 9.50669 10.6176 9.53887C10.7052 9.33351 10.6733 9.27311 10.3785 9.20867L10.3586 9.20867C10.1912 9.16041 10.02 9.31742 9.93629 9.4543C9.86853 9.56709 9.79684 9.67575 9.72908 9.7925C9.70517 9.84085 9.67733 9.8972 9.65341 9.9576C9.53389 10.014 9.42629 10.0704 9.30677 10.1469C9.08765 10.2838 8.84861 10.3965 8.66933 10.5938C8.56181 10.7146 8.34661 10.9361 8.35861 11.1252C8.39445 11.234 8.41837 11.3467 8.56973 11.3668C8.70917 11.383 8.79285 11.2622 8.89245 11.1937C9.00797 11.1132 9.11157 11.0246 9.23509 10.9602C9.21117 11.0246 9.18725 11.089 9.16333 11.1333C9.09965 11.2823 9.07973 11.3507 9.02789 11.5118C8.94821 11.7655 8.86061 11.842 8.88053 12.1158C8.91637 12.6593 9.53389 12.76 10.008 12.3695C10.1116 12.2849 10.1076 12.2044 10.2231 12.1279C10.3347 12.0594 10.506 12.0111 10.5816 12.1601C10.6852 12.3573 10.502 12.7479 10.4184 12.9291C10.3586 13.054 10.1156 13.5129 9.8606 13.7988C9.73309 13.9398 9.89245 14.1854 10.2152 14.1531C10.4104 14.133 10.6534 13.8068 10.7371 13.6659C10.8964 13.3962 11.1116 13.0983 11.2072 12.7963C11.2868 12.5305 11.3386 12.3372 11.3864 12.0594C11.4303 11.8178 11.4382 11.4394 11.1952 11.3306L11.2032 11.3266Z" fill="#666666"/>
<path d="M8.39422 14.5275C8.32254 14.6643 8.35438 14.9301 8.64126 14.8737C8.92806 14.8173 9.1751 14.302 8.64918 14.2818L8.6771 14.3945C8.63726 14.2375 8.41014 14.4992 8.39422 14.5314L8.39422 14.5275Z" fill="#666666"/>
<path d="M8.37426 10.8232L8.36234 10.7588L8.34634 10.7226L8.37426 10.8232Z" fill="#666666"/>
<path d="M43.0873 20.0919C41.7367 18.9686 40.2945 20.1765 39.414 20.869C38.9758 21.2194 38.7288 21.1147 38.5813 20.9415C38.438 20.7684 38.2427 20.4221 37.8324 20.3859C36.8005 20.2852 36.5575 21.1992 35.8682 22.2421C34.8682 23.7519 32.7248 24.2109 31.2866 23.3493C30.2069 22.701 29.681 21.7388 29.45 21.1751C34.4897 20.7523 38.2188 19.0853 38.8084 14.7811C39.3901 10.5453 34.5774 9.16019 31.175 10.9037C27.7209 12.6712 27.2906 16.6011 27.8085 18.7995C28.0436 18.727 28.4659 18.6344 28.7767 18.5337C28.8005 15.4898 29.8962 14.3664 31.3543 13.8188C33.7009 12.9451 35.3623 14.5556 34.2507 16.2588C32.5296 18.8921 27.6332 19.5886 24.2946 20.1846C21.8165 20.6275 17.4421 21.0421 14.9401 23.8083C15.8246 23.2406 16.7808 22.7655 21.0596 22.1454C25.1672 21.5495 25.8843 21.7146 28.4739 21.3321C29.3544 23.76 31.8125 28.2454 38.2148 27.0013C42.3542 26.196 43.7008 23.9815 43.8244 22.2541C43.896 21.2355 43.5096 20.4342 43.0873 20.0839L43.0873 20.0919Z" fill="url(#paint4_linear_604_94484)"/>
</g>
<defs>
<radialGradient id="paint0_radial_604_94484" cx="0" cy="0" r="1" gradientUnits="userSpaceOnUse" gradientTransform="translate(30.5495 34.5082) scale(12.2455 2.555)">
<stop stop-color="#D1D1D2"/>
<stop offset="0.1" stop-color="#D1D1D2"/>
<stop offset="0.52" stop-color="#ECECED"/>
<stop offset="0.86" stop-color="white"/>
<stop offset="1" stop-color="white"/>
</radialGradient>
<linearGradient id="paint1_linear_604_94484" x1="21.2653" y1="3.83237" x2="19.5834" y2="27.6315" gradientUnits="userSpaceOnUse">
<stop stop-color="#9AC717"/>
<stop offset="0.07" stop-color="#9AC717"/>
<stop offset="0.96" stop-color="#00A93A"/>
<stop offset="1" stop-color="#00A93A"/>
</linearGradient>
<linearGradient id="paint2_linear_604_94484" x1="32.0646" y1="68.0691" x2="34.9276" y2="27.559" gradientUnits="userSpaceOnUse">
<stop stop-color="#9AC717"/>
<stop offset="0.07" stop-color="#9AC717"/>
<stop offset="0.96" stop-color="#00A93A"/>
<stop offset="1" stop-color="#00A93A"/>
</linearGradient>
<linearGradient id="paint3_linear_604_94484" x1="20.1501" y1="12.4758" x2="40.7685" y2="8.90421" gradientUnits="userSpaceOnUse">
<stop stop-color="#F5A500"/>
<stop offset="0.25" stop-color="#F5A500"/>
<stop offset="0.33" stop-color="#F39901"/>
<stop offset="0.47" stop-color="#F17A04"/>
<stop offset="0.66" stop-color="#EC480A"/>
<stop offset="0.89" stop-color="#E60411"/>
<stop offset="0.9" stop-color="#E60012"/>
<stop offset="1" stop-color="#E60012"/>
</linearGradient>
<linearGradient id="paint4_linear_604_94484" x1="19.9657" y1="21.3514" x2="43.0573" y2="17.4294" gradientUnits="userSpaceOnUse">
<stop stop-color="#F5A500"/>
<stop offset="0.25" stop-color="#F5A500"/>
<stop offset="0.33" stop-color="#F39901"/>
<stop offset="0.47" stop-color="#F17A04"/>
<stop offset="0.66" stop-color="#EC480A"/>
<stop offset="0.89" stop-color="#E60411"/>
<stop offset="0.9" stop-color="#E60012"/>
<stop offset="1" stop-color="#E60012"/>
</linearGradient>
<clipPath id="clip0_604_94484">
<rect width="44" height="38" fill="white"/>
</clipPath>
</defs>
</svg>
