<svg width="250" height="48" viewBox="0 0 250 48" fill="none" xmlns="http://www.w3.org/2000/svg">
<g clip-path="url(#clip0_672_18008)">
<path d="M23.8397 29.4662C26.3977 31.8062 28.5343 34.3643 27.7567 38.7173C26.9646 43.1285 22.9022 45.345 21.0127 44.6474C20.2642 44.3712 19.6683 43.5791 20.1188 42.4163C20.9473 40.2871 23.1783 38.8045 25.3876 38.1432C26.6811 37.7508 26.8483 37.1331 26.187 36.6026C25.6201 36.1302 24.5155 35.7378 23.0693 35.7087C19.2322 35.636 15.2353 39.3786 16.4416 43.55C17.1829 46.1154 19.9517 47.9104 23.3092 48.0048C27.2625 48.1357 31.8409 45.6721 32.9019 40.5559C34.0792 34.8366 30.2057 29.8804 25.6274 28.2307C22.6842 27.1843 22.8659 28.565 23.8397 29.4662Z" fill="#EE2A7B"/>
<path d="M17.5968 1.34298C19.0794 1.51012 23.3888 8.99536 24.4062 9.00263C25.4164 9.0099 33.3813 0.688928 34.8492 0.797937C36.6224 0.928747 34.98 4.2862 32.6182 8.47212C31.3464 10.7395 30.6197 11.7932 30.6197 12.7452C30.6197 13.8571 35.1399 19.2712 34.2461 20.2814C33.5702 21.0517 28.0471 18.0867 26.7245 17.4326C25.787 16.9748 25.7289 17.6434 25.7289 18.5808C25.7289 19.2712 26.412 23.7696 25.0312 23.617C21.4121 23.2101 14.2539 0.936014 17.5968 1.33571V1.34298Z" fill="#047BC1"/>
<path d="M45.6188 34.8565C46.6071 37.5163 46.3818 40.3942 47.0141 41.8476C47.6391 43.2647 49.2233 43.6935 50.3352 42.8432C51.5924 41.8694 51.5924 38.4611 51.309 36.5135C51.0474 34.7839 49.8628 29.3334 47.1449 28.3015C45.4371 27.6547 43.5185 28.6431 43.2206 29.8276C42.9299 31.0122 40.7788 35.6705 39.8849 35.3144C39.5506 35.1763 38.7222 32.3711 38.3515 31.3465C37.9446 30.2564 36.4185 25.1548 35.3139 25.0676C34.4709 25.0022 34.2528 27.6765 34.4345 29.973C34.6089 31.9642 35.2921 38.5773 37.3196 39.791C39.3399 41.0046 43.6566 38.7009 45.6115 34.8493L45.6188 34.8565Z" fill="#F58220"/>
<path d="M18.6864 28.9548C20.3143 29.3763 21.0701 30.2483 21.041 31.5128C21.0119 32.8282 19.7983 33.8674 18.0396 33.6785C15.9394 33.4532 8.30882 30.8224 4.52986 25.7572C2.97468 23.6788 3.69413 21.7893 5.54727 20.5466C9.29716 18.0321 17.7707 16.1935 18.6864 18.0176C19.1951 19.0423 16.0847 20.0379 13.4976 21.1352C11.0849 22.1526 8.78119 23.2791 8.74485 24.013C8.70852 24.8996 13.752 27.6757 18.6864 28.9548Z" fill="#00AEE6"/>
<path d="M17.4351 28.7586C17.5441 26.7964 17.1735 21.8838 16.2796 21.4841C15.5311 21.1498 14.5282 23.9549 13.707 27.6975" fill="#00AEE6"/>
<path d="M27.0333 3.16282C26.4301 4.12936 25.1438 4.42005 24.1773 3.81687C23.2107 3.21369 22.92 1.94192 23.516 0.975384C24.1264 0.00884298 25.3982 -0.289113 26.3647 0.321334C27.3312 0.924513 27.6292 2.19628 27.026 3.16282H27.0333Z" fill="#047BC1"/>
<path d="M54.9803 10.5478C54.7187 11.6525 53.5995 12.3428 52.4804 12.074C51.3757 11.8123 50.6926 10.7005 50.9542 9.5813C51.2159 8.47669 52.335 7.79357 53.4396 8.06246C54.5515 8.32408 55.2346 9.43596 54.973 10.5478H54.9803Z" fill="#39B54A"/>
<path d="M3.80677 23.6582C3.18179 24.6175 1.90275 24.8791 0.950749 24.2614C-0.00125716 23.6437 -0.270144 22.3574 0.347569 21.3981C0.97255 20.4461 2.25158 20.1772 3.21085 20.8022C4.16286 21.4272 4.43175 22.6989 3.80677 23.6582Z" fill="#00AEE6"/>
<path d="M36.8231 22.8915C37.3827 23.8435 38.1894 24.3522 39.483 24.8391C41.2416 25.5004 46.5612 25.3769 50.1076 21.7723C53.3488 18.4875 53.7412 13.5313 50.9724 10.6607C47.6295 7.17974 41.1035 7.36142 37.608 11.7436C35.6677 14.1635 35.9293 16.8015 37.2592 18.0878C38.1167 18.9163 39.4175 19.3741 40.7111 19.4323C41.8012 19.4831 41.7794 19.1852 41.307 18.6765C40.1297 17.4193 40.1879 15.8786 40.8855 14.5778C42.4843 11.5982 46.1615 10.9732 47.7603 12.7537C49.4027 14.585 48.1891 17.8117 45.0133 19.5994C42.3317 21.1183 39.2577 20.6386 37.1284 19.7738C36.3435 20.9075 36.438 22.2665 36.8159 22.8987L36.8231 22.8915Z" fill="#39B54A"/>
<path d="M94.7646 22.6797H92.0176V27.3234H94.7646V22.6797Z" fill="#58595B"/>
<path d="M87.6348 15.1987V16.8847H96.6679V19.0648C96.6679 20.3003 96.479 21.463 96.2537 22.2333H98.6155C99.117 21.1869 99.4222 19.5517 99.4222 18.1346V15.1914H87.6348V15.1987Z" fill="#58595B"/>
<path d="M99.5779 26.5469H87.4707V28.2401H96.8382V33.2255H98.0736C99.0765 33.2255 99.5779 32.9784 99.5779 32.0336V26.5469Z" fill="#58595B"/>
<path d="M101.775 21.8945H85.2637V23.5878H101.775V21.8945Z" fill="#58595B"/>
<path d="M79.9785 28.4039H78.7285V14.7852H81.4828V27.2266C81.4828 28.1641 80.9741 28.4112 79.9785 28.4112V28.4039Z" fill="#58595B"/>
<path d="M84.25 19.0352H79.9551V20.7284H84.25V19.0352Z" fill="#58595B"/>
<path d="M73.2451 14.582H70.498V17.8232H73.2451V14.582Z" fill="#58595B"/>
<path d="M77.0223 16.6172H66.7246V18.3104H77.0223V16.6172Z" fill="#58595B"/>
<path d="M72.6776 31.5117V27.3984H69.916V31.1483C69.916 32.4564 70.7081 33.2049 72.0962 33.2049H81.6526V31.5117H72.6703H72.6776Z" fill="#58595B"/>
<path d="M71.8779 17.0977C69.2908 17.0977 67.2051 19.0453 67.2051 21.4362C67.2051 23.8271 69.2908 25.782 71.8779 25.782C74.465 25.782 76.5435 23.8416 76.5435 21.4362C76.5435 19.0307 74.4578 17.0977 71.8779 17.0977ZM71.8779 24.1396C70.8169 24.1396 69.9594 22.9332 69.9594 21.4362C69.9594 19.9391 70.8169 18.7328 71.8779 18.7328C72.9389 18.7328 73.7964 19.9391 73.7964 21.4362C73.7964 22.9332 72.9316 24.1396 71.8779 24.1396Z" fill="#58595B"/>
<path d="M224.506 14.1016H221.752V17.3573H224.506V14.1016Z" fill="#58595B"/>
<path d="M229.82 15.9883H216.412V17.6815H229.82V15.9883Z" fill="#58595B"/>
<path d="M231.479 24.5156H214.771V26.2089H231.479V24.5156Z" fill="#58595B"/>
<path d="M223.122 16.1406C220.586 16.1406 218.529 17.8557 218.529 19.9632C218.529 22.0707 220.586 23.7857 223.122 23.7857C225.658 23.7857 227.722 22.0707 227.722 19.9632C227.722 17.8557 225.666 16.1406 223.122 16.1406ZM223.122 22.0925C222.112 22.0925 221.284 21.1405 221.284 19.9632C221.284 18.7859 222.112 17.8339 223.122 17.8339C224.132 17.8339 224.968 18.7859 224.968 19.9632C224.968 21.1405 224.14 22.0925 223.122 22.0925Z" fill="#58595B"/>
<path d="M223.123 25.4102C220.383 25.4102 218.174 27.3069 218.174 29.6469C218.174 31.987 220.383 33.891 223.123 33.891C225.863 33.891 228.086 31.987 228.086 29.6469C228.086 27.3069 225.863 25.4102 223.123 25.4102ZM223.123 32.2486C221.975 32.2486 221.023 31.0786 221.023 29.6542C221.023 28.2298 221.975 27.0671 223.123 27.0671C224.271 27.0671 225.23 28.2298 225.23 29.6542C225.23 31.0786 224.293 32.2486 223.123 32.2486Z" fill="#58595B"/>
<path d="M247.604 28.821H246.361V14.7734H249.108V27.6292C249.108 28.5666 248.6 28.821 247.604 28.821Z" fill="#58595B"/>
<path d="M240.299 24.2148H237.537V27.2598H240.299V24.2148Z" fill="#58595B"/>
<path d="M246.781 25.5156H242.268V27.1217H246.781V25.5156Z" fill="#58595B"/>
<path d="M244.927 22.9375H233.568V24.5508H244.927V22.9375Z" fill="#58595B"/>
<path d="M240.299 32.3176V28.168H237.537V31.1403C237.537 32.4484 238.322 33.1969 239.717 33.1969H249.281V31.5036H239.717" fill="#58595B"/>
<path d="M239.123 14.5938C236.652 14.5938 234.646 16.3161 234.646 18.4454C234.646 20.5747 236.645 22.3043 239.123 22.3043C241.601 22.3043 243.607 20.5747 243.607 18.4454C243.607 16.3161 241.608 14.5938 239.123 14.5938ZM239.123 20.8436C238.157 20.8436 237.386 19.768 237.386 18.4381C237.386 17.1082 238.164 16.0327 239.123 16.0327C240.082 16.0327 240.867 17.1082 240.867 18.4381C240.867 19.768 240.082 20.8436 239.123 20.8436Z" fill="#58595B"/>
<path d="M191.686 24.3483H190.443V14.7773H193.19V23.1637C193.19 24.1012 192.689 24.3483 191.686 24.3483Z" fill="#58595B"/>
<path d="M191.352 18.4258H187.064V20.119H191.352V18.4258Z" fill="#58595B"/>
<path d="M190.809 27.6172H183.811V29.3032H190.809V27.6172Z" fill="#58595B"/>
<path d="M193.191 25.5508H190.444V31.5172H184.311V25.5508H181.557V31.1538C181.557 32.4619 182.334 33.2104 183.737 33.2104H193.199V25.558L193.191 25.5508Z" fill="#58595B"/>
<path d="M182.9 14.8008C180.168 14.8008 177.951 16.8937 177.951 19.4809C177.951 22.068 180.16 24.1537 182.9 24.1537C185.64 24.1537 187.842 22.068 187.842 19.4809C187.842 16.8937 185.625 14.8008 182.9 14.8008ZM184.986 19.4736C184.986 21.0797 184.048 22.3878 182.9 22.3878C181.752 22.3878 180.814 21.0797 180.814 19.4736C180.814 17.8675 181.752 16.5594 182.9 16.5594C184.048 16.5594 184.986 17.8675 184.986 19.4736Z" fill="#58595B"/>
<path d="M136.124 33.2327H134.881V14.7812H137.621V32.0409C137.621 32.9856 137.112 33.2327 136.124 33.2327Z" fill="#58595B"/>
<path d="M129.311 14.582H126.557V17.8232H129.311V14.582Z" fill="#58595B"/>
<path d="M129.311 24.7148H126.557V27.956H129.311V24.7148Z" fill="#58595B"/>
<path d="M133.073 16.6172H122.775V18.3104H133.073V16.6172Z" fill="#58595B"/>
<path d="M130.435 28.5125H122.666V26.8192H130.435C131.845 26.8192 134.177 26.6303 135.253 26.1797V27.6113C134.344 28.1491 132.244 28.5125 130.435 28.5125Z" fill="#58595B"/>
<path d="M127.927 16.9141C125.391 16.9141 123.342 18.789 123.342 21.1072C123.342 23.4255 125.398 25.3077 127.927 25.3077C130.456 25.3077 132.52 23.4328 132.52 21.1072C132.52 18.7817 130.471 16.9141 127.927 16.9141ZM127.927 23.7234C126.917 23.7234 126.089 22.5462 126.089 21.1145C126.089 19.6829 126.917 18.491 127.927 18.491C128.938 18.491 129.766 19.6683 129.766 21.1145C129.766 22.5607 128.952 23.7234 127.927 23.7234Z" fill="#58595B"/>
<path d="M116.538 33.2288H115.295V14.7773H118.056V32.037C118.056 32.9817 117.54 33.2288 116.545 33.2288H116.538Z" fill="#58595B"/>
<path d="M120.797 19.5273H116.51V21.2206H120.797V19.5273Z" fill="#58595B"/>
<path d="M109.879 15.1992H107.045V18.4549H109.879V15.1992Z" fill="#58595B"/>
<path d="M107.043 18.4547C107.043 19.879 106.84 23.4836 102.646 25.562L103.991 26.8556C105.517 26.2597 108.061 24.4501 108.904 22.4662V17.9023L107.043 18.4547Z" fill="#58595B"/>
<path d="M109.871 18.4547C109.871 19.879 110.074 23.4836 114.275 25.562L112.937 26.8556C111.411 26.2597 108.861 24.4501 108.018 22.4662V17.9023L109.871 18.4547Z" fill="#58595B"/>
<path d="M173.014 33.2288H171.771V14.7773H174.526V32.037C174.526 32.9817 174.01 33.2288 173.014 33.2288Z" fill="#58595B"/>
<path d="M168.02 15.3945H160.033V17.0878H168.02V15.3945Z" fill="#58595B"/>
<path d="M165.934 16.6518C165.934 20.5833 162.875 24.2533 159.357 25.932L160.702 27.2256C163.064 26.2227 168.928 22.8798 168.928 16.4919V15.3945H165.934V16.6518Z" fill="#58595B"/>
<path d="M154.542 25.0387H153.299V14.7773H156.046V23.8541C156.046 24.7916 155.537 25.0387 154.542 25.0387Z" fill="#58595B"/>
<path d="M154.542 33.2256H153.299V27.0703H156.046V32.0411C156.046 32.9858 155.537 33.2329 154.542 33.2329V33.2256Z" fill="#58595B"/>
<path d="M154.415 18.7969H150.127V20.4829H154.415V18.7969Z" fill="#58595B"/>
<path d="M150.816 15.1992H141.42V16.8852H150.816V15.1992Z" fill="#58595B"/>
<path d="M156.046 26.3945H143.779V28.0878H156.046V26.3945Z" fill="#58595B"/>
<path d="M144.691 16.8693C144.691 18.9404 144.422 21.5566 140.367 23.4897L141.704 24.7833C143.267 24.1946 145.738 22.683 146.552 20.7282V16.3242L144.684 16.8693H144.691Z" fill="#58595B"/>
<path d="M147.524 16.8693C147.524 18.9404 147.793 21.5566 151.848 23.4897L150.511 24.7833C148.942 24.1946 146.471 22.683 145.664 20.7282V16.3242L147.524 16.8693Z" fill="#58595B"/>
<path d="M210.24 28.4H208.99V14.7812H211.737V27.2227C211.737 28.1602 211.229 28.4073 210.24 28.4073V28.4Z" fill="#58595B"/>
<path d="M210.24 28.4H208.99V14.7812H211.737V27.2227C211.737 28.1602 211.229 28.4073 210.24 28.4073V28.4Z" fill="#58595B"/>
<path d="M202.921 32.3167V27.0625H200.174V31.1467C200.174 32.4548 200.966 33.2033 202.354 33.2033H211.903V31.51H202.354" fill="#58595B"/>
<path d="M206.496 15.1992H196.947V16.8852H206.496V15.1992Z" fill="#58595B"/>
<path d="M200.314 16.8687C200.314 18.9399 200.008 22.4136 195.902 24.3467L197.24 25.6402C198.86 25.0807 201.331 23.3801 202.167 21.4107V16.3164L200.321 16.8614L200.314 16.8687Z" fill="#58595B"/>
<path d="M203.139 16.8687C203.139 18.9399 203.437 22.4136 207.55 24.3467L206.206 25.6402C204.585 25.0807 202.121 23.3801 201.293 21.4107V16.3164L203.139 16.8614V16.8687Z" fill="#58595B"/>
</g>
<defs>
<clipPath id="clip0_672_18008">
<rect width="249.266" height="48" fill="white"/>
</clipPath>
</defs>
</svg>
