<svg width="16" height="55" viewBox="0 0 16 55" fill="none" xmlns="http://www.w3.org/2000/svg">
<path d="M7.29289 54.7071C7.68342 55.0976 8.31658 55.0976 8.70711 54.7071L15.0711 48.3431C15.4616 47.9526 15.4616 47.3195 15.0711 46.9289C14.6805 46.5384 14.0474 46.5384 13.6569 46.9289L8 52.5858L2.34315 46.9289C1.95262 46.5384 1.31946 46.5384 0.928932 46.9289C0.538408 47.3195 0.538408 47.9526 0.928932 48.3431L7.29289 54.7071ZM8.70711 0.292896C8.31658 -0.0976257 7.68342 -0.0976257 7.2929 0.292896L0.928934 6.65686C0.53841 7.04738 0.53841 7.68055 0.928934 8.07107C1.31946 8.4616 1.95262 8.4616 2.34315 8.07107L8 2.41422L13.6569 8.07107C14.0474 8.4616 14.6805 8.4616 15.0711 8.07107C15.4616 7.68055 15.4616 7.04738 15.0711 6.65686L8.70711 0.292896ZM9 54L9 1L7 1L7 54L9 54Z" fill="black"/>
</svg>
