<svg width="40" height="40" viewBox="0 0 40 40" fill="none" xmlns="http://www.w3.org/2000/svg">
<rect width="40" height="40" rx="20" fill="#0D99FF"/>
<mask id="mask0_720_1866" style="mask-type:alpha" maskUnits="userSpaceOnUse" x="10" y="10" width="20" height="20">
<rect x="10" y="10" width="20" height="20" fill="#D9D9D9"/>
</mask>
<g mask="url(#mask0_720_1866)">
<path d="M20 27.5208C19.8194 27.5208 19.6493 27.4896 19.4896 27.4271C19.3299 27.3646 19.1736 27.2708 19.0208 27.1458C18.4653 26.6597 17.8646 26.0903 17.2188 25.4375C16.5729 24.7847 15.9722 24.0833 15.4167 23.3333C14.8611 22.5833 14.4028 21.8021 14.0417 20.9896C13.6806 20.1771 13.5 19.3681 13.5 18.5625C13.5 16.7014 14.1181 15.1424 15.3542 13.8854C16.5903 12.6285 18.1389 12 20 12C21.8472 12 23.3924 12.6285 24.6354 13.8854C25.8785 15.1424 26.5 16.7014 26.5 18.5625C26.5 19.3681 26.316 20.1806 25.9479 21C25.5799 21.8194 25.1215 22.6042 24.5729 23.3542C24.0243 24.1042 23.4271 24.8021 22.7812 25.4479C22.1354 26.0938 21.5347 26.6597 20.9792 27.1458C20.8264 27.2708 20.6701 27.3646 20.5104 27.4271C20.3507 27.4896 20.1806 27.5208 20 27.5208ZM20 20C20.4167 20 20.7708 19.8542 21.0625 19.5625C21.3542 19.2708 21.5 18.9167 21.5 18.5C21.5 18.0833 21.3542 17.7292 21.0625 17.4375C20.7708 17.1458 20.4167 17 20 17C19.5833 17 19.2292 17.1458 18.9375 17.4375C18.6458 17.7292 18.5 18.0833 18.5 18.5C18.5 18.9167 18.6458 19.2708 18.9375 19.5625C19.2292 19.8542 19.5833 20 20 20Z" fill="white"/>
</g>
</svg>
