<svg width="17" height="16" viewBox="0 0 17 16" fill="none" xmlns="http://www.w3.org/2000/svg">
<path d="M1.03203 5.7H15.632V14C15.632 14.718 15.05 15.3 14.332 15.3H2.33203C1.61406 15.3 1.03203 14.718 1.03203 14V5.7Z" stroke="#8E8E8E" stroke-width="1.4"/>
<rect x="4.03125" y="9.60156" width="1.8" height="1.8" rx="0.9" fill="#8E8E8E"/>
<rect x="7.42969" y="9.60156" width="1.8" height="1.8" rx="0.9" fill="#8E8E8E"/>
<rect x="10.832" y="9.60156" width="1.8" height="1.8" rx="0.9" fill="#8E8E8E"/>
<rect x="4.68203" y="0.35" width="0.7" height="1.3" rx="0.35" stroke="#8E8E8E" stroke-width="0.7"/>
<rect x="11.2836" y="0.35" width="0.7" height="1.3" rx="0.35" stroke="#8E8E8E" stroke-width="0.7"/>
<mask id="path-7-inside-1_775_11331" fill="white">
<path d="M0.332031 3C0.332031 1.89543 1.22746 1 2.33203 1H14.332C15.4366 1 16.332 1.89543 16.332 3V6H0.332031V3Z"/>
</mask>
<path d="M-1.06797 3C-1.06797 1.12223 0.454263 -0.4 2.33203 -0.4H14.332C16.2098 -0.4 17.732 1.12223 17.732 3H14.932C14.932 2.66863 14.6634 2.4 14.332 2.4H2.33203C2.00066 2.4 1.73203 2.66863 1.73203 3H-1.06797ZM16.332 6H0.332031H16.332ZM-1.06797 6V3C-1.06797 1.12223 0.454263 -0.4 2.33203 -0.4V2.4C2.00066 2.4 1.73203 2.66863 1.73203 3V6H-1.06797ZM14.332 -0.4C16.2098 -0.4 17.732 1.12223 17.732 3V6H14.932V3C14.932 2.66863 14.6634 2.4 14.332 2.4V-0.4Z" fill="#8E8E8E" mask="url(#path-7-inside-1_775_11331)"/>
</svg>
