<svg width="24" height="24" viewBox="0 0 24 24" fill="none" xmlns="http://www.w3.org/2000/svg">
<path d="M14.7969 1.5C15.5925 1.5 16.3556 1.81607 16.9182 2.37868C17.4808 2.94129 17.7969 3.70435 17.7969 4.5V7.884C17.3189 7.714 16.8189 7.5995 16.2969 7.5405V4.5C16.2969 4.10218 16.1388 3.72064 15.8575 3.43934C15.5762 3.15804 15.1947 3 14.7969 3H10.2969V6.75C10.2969 7.34674 10.0598 7.91903 9.63787 8.34099C9.21591 8.76295 8.64361 9 8.04688 9H4.29688V19.5C4.29688 19.8978 4.45491 20.2794 4.73622 20.5607C5.01752 20.842 5.39905 21 5.79688 21H5.92438C5.75338 21.4845 5.75338 22.0155 5.92438 22.5H5.79688C5.00123 22.5 4.23817 22.1839 3.67556 21.6213C3.11295 21.0587 2.79688 20.2956 2.79688 19.5V8.121C2.7974 7.52446 3.0348 6.95255 3.45688 6.531L7.82638 2.1585C8.03541 1.9496 8.28355 1.78393 8.55662 1.67094C8.8297 1.55795 9.12235 1.49987 9.41788 1.5H14.7969ZM4.60738 7.5H8.04688C8.24579 7.5 8.43655 7.42098 8.57721 7.28033C8.71786 7.13968 8.79688 6.94891 8.79688 6.75V3.3105L4.60738 7.5ZM12.4029 18.4545C13.4659 19.2494 14.7905 19.6121 16.1101 19.4697C17.4298 19.3273 18.6465 18.6903 19.5155 17.687C20.3844 16.6836 20.8411 15.3884 20.7935 14.0619C20.746 12.7355 20.1977 11.4762 19.2592 10.5377C18.3206 9.59914 17.0614 9.05092 15.7349 9.00337C14.4085 8.95582 13.1132 9.41247 12.1099 10.2814C11.1066 11.1504 10.4696 12.3671 10.3272 13.6867C10.1848 15.0064 10.5475 16.331 11.3424 17.394L7.51738 21.219C7.37655 21.3596 7.29735 21.5504 7.29721 21.7495C7.29707 21.9485 7.37599 22.1394 7.51663 22.2803C7.65726 22.4211 7.84807 22.5003 8.0471 22.5004C8.24612 22.5006 8.43705 22.4216 8.57788 22.281L12.4029 18.4545ZM11.7969 14.25C11.7969 13.2554 12.192 12.3016 12.8952 11.5983C13.5985 10.8951 14.5523 10.5 15.5469 10.5C16.5414 10.5 17.4953 10.8951 18.1985 11.5983C18.9018 12.3016 19.2969 13.2554 19.2969 14.25C19.2969 15.2446 18.9018 16.1984 18.1985 16.9017C17.4953 17.6049 16.5414 18 15.5469 18C14.5523 18 13.5985 17.6049 12.8952 16.9017C12.192 16.1984 11.7969 15.2446 11.7969 14.25Z" fill="#1D1D1D"/>
</svg>
