<svg width="18" height="30" viewBox="0 0 18 30" fill="none" xmlns="http://www.w3.org/2000/svg">
<path d="M0.578796 8.0147C0.574478 8.11656 0.591043 8.21824 0.627473 8.31347C0.663903 8.4087 0.719427 8.49547 0.790631 8.56845C0.861836 8.64143 0.947217 8.69907 1.04152 8.73783C1.13583 8.77659 1.23706 8.79565 1.33901 8.79384H3.9414C4.37671 8.79384 4.72369 8.43739 4.78047 8.00523C5.06437 5.93594 6.48385 4.42813 9.01369 4.42813C11.1776 4.42813 13.1586 5.51009 13.1586 8.11248C13.1586 10.1155 11.9788 11.0366 10.1146 12.4372C7.99166 13.9797 6.31036 15.7809 6.43023 18.705L6.43969 19.3895C6.443 19.5965 6.52755 19.7938 6.67508 19.939C6.82262 20.0842 7.02131 20.1655 7.2283 20.1655H9.78652C9.99567 20.1655 10.1963 20.0824 10.3442 19.9345C10.492 19.7866 10.5751 19.586 10.5751 19.3769V19.0457C10.5751 16.7808 11.4363 16.1215 13.7611 14.3582C15.6821 12.8977 17.6852 11.2764 17.6852 7.87275C17.6852 3.10643 13.6601 0.803711 9.25343 0.803711C5.25679 0.803711 0.878465 2.66481 0.578796 8.0147ZM5.49021 26.1936C5.49021 27.8749 6.83084 29.1177 8.67617 29.1177C10.5972 29.1177 11.9189 27.8749 11.9189 26.1936C11.9189 24.4523 10.5941 23.2284 8.67302 23.2284C6.83084 23.2284 5.49021 24.4523 5.49021 26.1936Z" fill="black"/>
</svg>
