<svg width="16" height="16" viewBox="0 0 16 16" fill="none" xmlns="http://www.w3.org/2000/svg">
<path d="M0.7 5.7H15.3V14C15.3 14.718 14.718 15.3 14 15.3H2C1.28203 15.3 0.7 14.718 0.7 14V5.7Z" stroke="black" stroke-width="1.4"/>
<rect x="3.69922" y="9.60156" width="1.8" height="1.8" rx="0.9" fill="black"/>
<rect x="7.09766" y="9.60156" width="1.8" height="1.8" rx="0.9" fill="black"/>
<rect x="10.5" y="9.60156" width="1.8" height="1.8" rx="0.9" fill="black"/>
<rect x="4.35" y="0.35" width="0.7" height="1.3" rx="0.35" stroke="black" stroke-width="0.7"/>
<rect x="10.9516" y="0.35" width="0.7" height="1.3" rx="0.35" stroke="black" stroke-width="0.7"/>
<mask id="path-7-inside-1_775_7956" fill="white">
<path d="M0 3C0 1.89543 0.895431 1 2 1H14C15.1046 1 16 1.89543 16 3V6H0V3Z"/>
</mask>
<path d="M-1.4 3C-1.4 1.12223 0.122232 -0.4 2 -0.4H14C15.8778 -0.4 17.4 1.12223 17.4 3H14.6C14.6 2.66863 14.3314 2.4 14 2.4H2C1.66863 2.4 1.4 2.66863 1.4 3H-1.4ZM16 6H0H16ZM-1.4 6V3C-1.4 1.12223 0.122232 -0.4 2 -0.4V2.4C1.66863 2.4 1.4 2.66863 1.4 3V6H-1.4ZM14 -0.4C15.8778 -0.4 17.4 1.12223 17.4 3V6H14.6V3C14.6 2.66863 14.3314 2.4 14 2.4V-0.4Z" fill="black" mask="url(#path-7-inside-1_775_7956)"/>
</svg>
