<svg width="25" height="24" viewBox="0 0 25 24" fill="none" xmlns="http://www.w3.org/2000/svg">
<path d="M18.1309 16.75H16.1309C15.9319 16.75 15.7412 16.671 15.6005 16.5303C15.4599 16.3897 15.3809 16.1989 15.3809 16C15.3809 15.8011 15.4599 15.6103 15.6005 15.4697C15.7412 15.329 15.9319 15.25 16.1309 15.25H18.1309C18.4624 15.25 18.7803 15.1183 19.0147 14.8839C19.2492 14.6495 19.3809 14.3315 19.3809 14V10C19.3809 9.66848 19.2492 9.35054 19.0147 9.11612C18.7803 8.8817 18.4624 8.75 18.1309 8.75H6.13086C5.79934 8.75 5.4814 8.8817 5.24698 9.11612C5.01256 9.35054 4.88086 9.66848 4.88086 10V14C4.88086 14.3315 5.01256 14.6495 5.24698 14.8839C5.4814 15.1183 5.79934 15.25 6.13086 15.25H8.13086C8.32977 15.25 8.52054 15.329 8.66119 15.4697C8.80184 15.6103 8.88086 15.8011 8.88086 16C8.88086 16.1989 8.80184 16.3897 8.66119 16.5303C8.52054 16.671 8.32977 16.75 8.13086 16.75H6.13086C5.40151 16.75 4.70204 16.4603 4.18632 15.9445C3.67059 15.4288 3.38086 14.7293 3.38086 14V10C3.38086 9.27065 3.67059 8.57118 4.18632 8.05546C4.70204 7.53973 5.40151 7.25 6.13086 7.25H18.1309C18.8602 7.25 19.5597 7.53973 20.0754 8.05546C20.5911 8.57118 20.8809 9.27065 20.8809 10V14C20.8809 14.7293 20.5911 15.4288 20.0754 15.9445C19.5597 16.4603 18.8602 16.75 18.1309 16.75Z" fill="#1D1D1D"/>
<path d="M16.1309 8.75C15.9328 8.74741 15.7435 8.66756 15.6034 8.52747C15.4633 8.38737 15.3834 8.19811 15.3809 8V4.75H8.88086V8C8.88086 8.19891 8.80184 8.38968 8.66119 8.53033C8.52054 8.67098 8.32977 8.75 8.13086 8.75C7.93195 8.75 7.74118 8.67098 7.60053 8.53033C7.45988 8.38968 7.38086 8.19891 7.38086 8V4.5C7.38086 4.16848 7.51256 3.85054 7.74698 3.61612C7.9814 3.3817 8.29934 3.25 8.63086 3.25H15.6309C15.9624 3.25 16.2803 3.3817 16.5147 3.61612C16.7492 3.85054 16.8809 4.16848 16.8809 4.5V8C16.8783 8.19811 16.7984 8.38737 16.6583 8.52747C16.5182 8.66756 16.329 8.74741 16.1309 8.75ZM15.6309 20.75H8.63086C8.29934 20.75 7.9814 20.6183 7.74698 20.3839C7.51256 20.1495 7.38086 19.8315 7.38086 19.5V12.5C7.38086 12.1685 7.51256 11.8505 7.74698 11.6161C7.9814 11.3817 8.29934 11.25 8.63086 11.25H15.6309C15.9624 11.25 16.2803 11.3817 16.5147 11.6161C16.7492 11.8505 16.8809 12.1685 16.8809 12.5V19.5C16.8809 19.8315 16.7492 20.1495 16.5147 20.3839C16.2803 20.6183 15.9624 20.75 15.6309 20.75ZM8.88086 19.25H15.3809V12.75H8.88086V19.25Z" fill="#1D1D1D"/>
</svg>
