<svg width="22" height="34" viewBox="0 0 22 34" fill="none" xmlns="http://www.w3.org/2000/svg">
<g clip-path="url(#clip0_604_65534)">
<path d="M6.57239 29.5586C6.57239 32.0079 8.55393 34.0006 11.0032 34.0006C13.4462 34.0006 15.4339 32.014 15.4339 29.5586" fill="white"/>
<path d="M15.4831 24.6471C16.197 24.6471 16.7754 24.0671 16.7754 23.3515V20.7603C16.7754 20.6492 16.7385 20.5444 16.7078 20.4395C19.877 18.5023 22.0001 15.0165 22.0001 11.0249C22.0001 4.93558 17.077 0 10.997 0C4.92314 0 6.10352e-05 4.93558 6.10352e-05 11.0249C6.10352e-05 15.0165 2.12314 18.5023 5.29237 20.4395C5.26775 20.5444 5.22468 20.6431 5.22468 20.7603V23.3515C5.22468 24.061 5.80929 24.6471 6.51698 24.6471" fill="white"/>
<path d="M16.7754 26.709V25.944C16.7754 25.2284 16.197 24.6484 15.4831 24.6484H6.51698C5.80929 24.6484 5.22467 25.2284 5.22467 25.944V26.709C5.22467 27.1286 5.4339 27.4802 5.74775 27.7208C5.44006 27.9614 5.22467 28.3131 5.22467 28.7326V29.4976C5.22467 30.2133 5.80929 30.7932 6.51698 30.7932H15.4831C16.197 30.7932 16.7754 30.2133 16.7754 29.4976V28.7326C16.7754 28.3131 16.5601 27.9614 16.2524 27.7208C16.5601 27.4864 16.7754 27.1286 16.7754 26.709Z" fill="#FFF3AB"/>
</g>
<defs>
<clipPath id="clip0_604_65534">
<rect width="22" height="34" fill="white"/>
</clipPath>
</defs>
</svg>
