<svg width="27" height="23" viewBox="0 0 27 23" fill="none" xmlns="http://www.w3.org/2000/svg">
<path d="M0 6C0 4.89543 0.895431 4 2 4H20C21.1046 4 22 4.89543 22 6V21C22 22.1046 21.1046 23 20 23H2C0.89543 23 0 22.1046 0 21V6Z" fill="white"/>
<path d="M17 13.5L24.5 7.87084L24.5 19.1292L17 13.5Z" fill="white" fill-opacity="0.78"/>
<rect x="13" y="19" width="4" height="2" fill="#FF7146"/>
<path fill-rule="evenodd" clip-rule="evenodd" d="M9.1101 0.396555C8.62739 -0.132185 7.84475 -0.132185 7.36204 0.396555C6.87932 0.925295 6.87932 1.78255 7.36204 2.31129L9.52838 4.6842L8.49853 5.81225C8.01581 6.34099 8.01581 7.19825 8.49853 7.72699C8.98124 8.25572 9.76388 8.25572 10.2466 7.72699L11.2764 6.59893L12.3063 7.72699C12.789 8.25572 13.5717 8.25572 14.0544 7.72699C14.5371 7.19825 14.5371 6.34099 14.0544 5.81225L13.0245 4.6842L15.1909 2.31129C15.6736 1.78255 15.6736 0.925295 15.1909 0.396555C14.7081 -0.132185 13.9255 -0.132185 13.4428 0.396555L11.2764 2.76946L9.1101 0.396555Z" fill="white"/>
</svg>
