<svg width="20" height="20" viewBox="0 0 20 20" fill="none" xmlns="http://www.w3.org/2000/svg">
<path d="M0 15V5C0 4.33696 0.263392 3.70107 0.732233 3.23223C1.20107 2.76339 1.83696 2.5 2.5 2.5H17.5C18.163 2.5 18.7989 2.76339 19.2678 3.23223C19.7366 3.70107 20 4.33696 20 5V15C20 15.663 19.7366 16.2989 19.2678 16.7678C18.7989 17.2366 18.163 17.5 17.5 17.5H2.5C1.83696 17.5 1.20107 17.2366 0.732233 16.7678C0.263392 16.2989 0 15.663 0 15ZM8.4875 6.36625C8.39404 6.29971 8.28408 6.26018 8.16965 6.25198C8.05522 6.24379 7.94074 6.26724 7.83876 6.31978C7.73678 6.37233 7.65122 6.45192 7.59147 6.54986C7.53172 6.64779 7.50007 6.76028 7.5 6.875V13.125C7.50007 13.2397 7.53172 13.3522 7.59147 13.4501C7.65122 13.5481 7.73678 13.6277 7.83876 13.6802C7.94074 13.7328 8.05522 13.7562 8.16965 13.748C8.28408 13.7398 8.39404 13.7003 8.4875 13.6337L12.8625 10.5087C12.9435 10.4509 13.0096 10.3746 13.0551 10.2861C13.1007 10.1976 13.1245 10.0995 13.1245 10C13.1245 9.90047 13.1007 9.80237 13.0551 9.71388C13.0096 9.62539 12.9435 9.54906 12.8625 9.49125L8.4875 6.36625Z" fill="white"/>
</svg>
