<svg width="28" height="29" viewBox="0 0 28 29" fill="none" xmlns="http://www.w3.org/2000/svg">
<path d="M20.2616 21.9046C18.7496 21.9046 17.5238 20.779 17.5238 19.3906V6.57129H23V19.3899C22.9993 20.779 21.7735 21.9046 20.2616 21.9046Z" fill="#FF586E"/>
<path fill-rule="evenodd" clip-rule="evenodd" d="M18.334 0V19.2637C18.334 20.6764 19.4303 21.8304 20.8095 21.9015V21.9048H2.60965C1.16844 21.9048 0 20.7223 0 19.2637V0H18.334ZM3.83301 5.4761H14.7854V4.38086H3.83301V5.4761ZM14.7854 8.76174H3.83301V7.6665H14.7854V8.76174ZM11.5 12.0476H14.7857V10.9524H11.5V12.0476Z" fill="white"/>
<rect x="11.5" y="12.1182" width="16" height="16" rx="8" fill="#FF586E"/>
<mask id="path-4-inside-1_142_15423" fill="white">
<path d="M24.4999 20.8823L24.4999 22.8823C24.4999 23.4346 24.0522 23.8823 23.4999 23.8823L15.4999 23.8823C14.9476 23.8823 14.4999 23.4346 14.4999 22.8823L14.4999 20.8823L24.4999 20.8823Z"/>
</mask>
<path d="M25.4999 20.8823L25.4999 22.8823C25.4999 23.9869 24.6044 24.8823 23.4999 24.8823L23.4999 22.8823L23.4999 20.8823L25.4999 20.8823ZM15.4999 24.8823C14.3953 24.8823 13.4999 23.9869 13.4999 22.8823L13.4999 20.8823L15.4999 20.8823L15.4999 22.8823L15.4999 24.8823ZM14.4999 20.8823L24.4999 20.8823L14.4999 20.8823ZM25.4999 22.8823C25.4999 23.9869 24.6044 24.8823 23.4999 24.8823L15.4999 24.8823C14.3953 24.8823 13.4999 23.9869 13.4999 22.8823L15.4999 22.8823L23.4999 22.8823L25.4999 22.8823Z" fill="white" mask="url(#path-4-inside-1_142_15423)"/>
<path d="M19.4993 21.0861V14.9998M19.4993 21.0861L22.0012 18.5843M19.4993 21.0861L16.9974 18.5843" stroke="white"/>
</svg>
