<svg width="30" height="30" viewBox="0 0 30 30" fill="none" xmlns="http://www.w3.org/2000/svg">
<path d="M5.42078 10.5547V25.7941C5.42078 26.7739 6.22319 27.5664 7.21532 27.5664H22.5052C23.4973 27.5664 24.2997 26.7739 24.2997 25.7941V10.5547H5.42078ZM12.8093 21.0671C12.8093 21.5203 12.4376 21.8899 11.9762 21.8899C11.5173 21.8899 11.143 21.5228 11.143 21.0671V16.1679C11.143 15.7147 11.5147 15.345 11.9762 15.345C12.435 15.345 12.8093 15.7121 12.8093 16.1679V21.0671ZM18.6749 21.0671C18.6749 21.5203 18.3032 21.8899 17.8417 21.8899C17.3803 21.8899 17.0111 21.5228 17.0111 21.0671V16.1679C17.0111 15.7147 17.3828 15.345 17.8443 15.345C18.3058 15.345 18.6775 15.7121 18.6775 16.1679V21.0671H18.6749Z" fill="white"/>
<path d="M26.7567 8.20009V9.6369C26.7567 10.1344 26.385 10.5401 25.9236 10.5401H4.0764C3.61495 10.5373 3.24323 10.1344 3.24323 9.6369V8.20009C3.24323 7.70263 3.61495 7.29688 4.0764 7.29688H25.9261C26.385 7.29687 26.7567 7.69985 26.7567 8.20009Z" fill="#AF9DFA"/>
<path d="M19.4594 4.8267V5.71511C19.4594 6.14031 19.1214 6.48712 18.7018 6.48712H11.2981C10.8809 6.48712 10.5405 6.14268 10.5405 5.71511V4.8267C10.5405 4.4015 10.8785 4.05469 11.2981 4.05469H18.7042C19.1214 4.05469 19.4594 4.39912 19.4594 4.8267Z" fill="#FAF9FF"/>
</svg>
