<svg width="16" height="16" viewBox="0 0 16 16" fill="none" xmlns="http://www.w3.org/2000/svg">
<path d="M4 9.25C4.34722 9.25 4.64236 9.12847 4.88542 8.88542C5.12847 8.64236 5.25 8.34722 5.25 8C5.25 7.65278 5.12847 7.35764 4.88542 7.11458C4.64236 6.87153 4.34722 6.75 4 6.75C3.65278 6.75 3.35764 6.87153 3.11458 7.11458C2.87153 7.35764 2.75 7.65278 2.75 8C2.75 8.34722 2.87153 8.64236 3.11458 8.88542C3.35764 9.12847 3.65278 9.25 4 9.25ZM8 9.25C8.34722 9.25 8.64236 9.12847 8.88542 8.88542C9.12847 8.64236 9.25 8.34722 9.25 8C9.25 7.65278 9.12847 7.35764 8.88542 7.11458C8.64236 6.87153 8.34722 6.75 8 6.75C7.65278 6.75 7.35764 6.87153 7.11458 7.11458C6.87153 7.35764 6.75 7.65278 6.75 8C6.75 8.34722 6.87153 8.64236 7.11458 8.88542C7.35764 9.12847 7.65278 9.25 8 9.25ZM12 9.25C12.3472 9.25 12.6424 9.12847 12.8854 8.88542C13.1285 8.64236 13.25 8.34722 13.25 8C13.25 7.65278 13.1285 7.35764 12.8854 7.11458C12.6424 6.87153 12.3472 6.75 12 6.75C11.6528 6.75 11.3576 6.87153 11.1146 7.11458C10.8715 7.35764 10.75 7.65278 10.75 8C10.75 8.34722 10.8715 8.64236 11.1146 8.88542C11.3576 9.12847 11.6528 9.25 12 9.25ZM8.00583 16C6.90472 16 5.86806 15.7917 4.89583 15.375C3.92361 14.9583 3.07292 14.3854 2.34375 13.6562C1.61458 12.9271 1.04167 12.0767 0.625 11.105C0.208333 10.1333 0 9.09514 0 7.99042C0 6.88569 0.208333 5.85069 0.625 4.88542C1.04167 3.92014 1.61458 3.07292 2.34375 2.34375C3.07292 1.61458 3.92333 1.04167 4.895 0.625C5.86667 0.208333 6.90486 0 8.00958 0C9.11431 0 10.1493 0.208333 11.1146 0.625C12.0799 1.04167 12.9271 1.61458 13.6562 2.34375C14.3854 3.07292 14.9583 3.92167 15.375 4.89C15.7917 5.85847 16 6.89319 16 7.99417C16 9.09528 15.7917 10.1319 15.375 11.1042C14.9583 12.0764 14.3854 12.9271 13.6562 13.6562C12.9271 14.3854 12.0783 14.9583 11.11 15.375C10.1415 15.7917 9.10681 16 8.00583 16Z" fill="white"/>
</svg>
