<svg width="24" height="24" viewBox="0 0 24 24" fill="none" xmlns="http://www.w3.org/2000/svg">
<path d="M7.51687 16.4632L9.27787 15.9552L19.8809 5.22517C19.9645 5.13947 20.0111 5.0243 20.0105 4.90456C20.01 4.78481 19.9623 4.67009 19.8779 4.58517L19.2429 3.94317C19.2018 3.90101 19.1528 3.86744 19.0987 3.84443C19.0445 3.82142 18.9863 3.80942 18.9275 3.80914C18.8687 3.80886 18.8104 3.8203 18.756 3.8428C18.7016 3.8653 18.6523 3.8984 18.6109 3.94017L8.03587 14.6422L7.51687 16.4632ZM20.4999 2.67117L21.1349 3.31417C22.0109 4.20117 22.0189 5.63217 21.1509 6.51017L10.2249 17.5682L6.46088 18.6522C6.34708 18.6842 6.22811 18.6934 6.11074 18.6794C5.99337 18.6654 5.87991 18.6284 5.77683 18.5706C5.67376 18.5127 5.58309 18.4351 5.51 18.3422C5.43692 18.2493 5.38284 18.143 5.35087 18.0292C5.30183 17.8642 5.30114 17.6886 5.34888 17.5232L6.44387 13.6832L17.3409 2.65417C17.5481 2.44553 17.7948 2.28023 18.0665 2.16792C18.3383 2.05561 18.6297 1.99854 18.9237 2.00003C19.2178 2.00152 19.5086 2.06154 19.7792 2.1766C20.0498 2.29165 20.2948 2.46044 20.4999 2.67117ZM8.98088 3.82417C9.47688 3.82417 9.87887 4.23117 9.87887 4.73317C9.87967 4.85184 9.85706 4.9695 9.81234 5.07942C9.76763 5.18935 9.70169 5.28938 9.61829 5.3738C9.53489 5.45823 9.43566 5.52538 9.32629 5.57143C9.21692 5.61748 9.09954 5.64152 8.98088 5.64217H5.38888C4.39688 5.64217 3.59288 6.45617 3.59288 7.45917V18.3652C3.59288 19.3692 4.39688 20.1832 5.38888 20.1832H16.1649C17.1569 20.1832 17.9619 19.3692 17.9619 18.3652V14.7302C17.9619 14.2282 18.3639 13.8212 18.8599 13.8212C19.3559 13.8212 19.7579 14.2282 19.7579 14.7312V18.3652C19.7579 20.3732 18.1489 22.0012 16.1649 22.0012H5.38888C3.40488 22.0012 1.79688 20.3732 1.79688 18.3652V7.45917C1.79688 5.45217 3.40488 3.82417 5.38888 3.82417H8.98088Z" fill="#1D1D1D"/>
</svg>
