<svg width="20" height="16" viewBox="0 0 20 16" fill="none" xmlns="http://www.w3.org/2000/svg">
<mask id="path-1-outside-1_604_66080" maskUnits="userSpaceOnUse" x="0.0769043" y="0" width="20" height="16" fill="black">
<rect fill="white" x="0.0769043" width="20" height="16"/>
<path d="M4.0769 2L9.99998 14L15.9231 2L4.0769 2Z"/>
</mask>
<path d="M4.0769 2L9.99998 14L15.9231 2L4.0769 2Z" fill="white"/>
<path d="M9.99998 14L8.20655 14.8852C8.54349 15.5678 9.23873 16 9.99998 16C10.7612 16 11.4565 15.5678 11.7934 14.8852L9.99998 14ZM4.0769 2L4.0769 3.69549e-06L0.859361 4.64916e-06L2.28348 2.88522L4.0769 2ZM15.9231 2L17.7165 2.88522L19.1406 -9.53674e-07L15.9231 0L15.9231 2ZM11.7934 13.1148L5.87033 1.11479L2.28348 2.88522L8.20655 14.8852L11.7934 13.1148ZM14.1296 1.11478L8.20655 13.1148L11.7934 14.8852L17.7165 2.88522L14.1296 1.11478ZM4.0769 4L15.9231 4L15.9231 0L4.0769 3.69549e-06L4.0769 4Z" fill="#246BEB" mask="url(#path-1-outside-1_604_66080)"/>
<rect x="3" width="14" height="2" fill="white"/>
<path d="M3 0L4.07692 2H3V0Z" fill="#246BEB"/>
<path d="M17 0L15.9231 2H17V0Z" fill="#246BEB"/>
</svg>
