<svg width="81" height="40" viewBox="0 0 81 40" fill="none" xmlns="http://www.w3.org/2000/svg">
<g clip-path="url(#clip0_604_67524)">
<path d="M11.212 15.9774C11.1823 15.9774 11.1611 15.9774 11.1357 15.9774H10.9533C10.9533 15.9774 10.949 15.9774 10.9448 15.9774C10.6649 15.9774 10.4358 15.7484 10.4358 15.4685C10.4358 15.2267 10.6097 15.0316 10.8345 14.9807V14.9722L25.8319 12.0203C29.6109 11.278 32.109 7.66442 31.4728 3.86419L30.8239 -0.00390625L8.3491 4.4198C8.31517 4.42829 8.27699 4.43253 8.24306 4.44101C4.604 5.23414 -0.583146 9.03437 0.0488119 16.2616C0.42629 20.5538 2.39003 23.0308 3.97628 24.3541C6.57198 26.5214 9.51122 26.8225 10.949 26.8225C11.106 26.8225 11.2417 26.8225 11.3604 26.814H35.324L33.5044 15.9817H11.212V15.9774Z" fill="white"/>
<path d="M35.7198 29.168H3.76562L5.58091 40.0003H37.5394L35.7198 29.168Z" fill="white"/>
<path d="M41.3444 35.7092C41.3444 36.409 41.7092 37.1131 42.2987 37.4057L42.023 37.762C41.6031 37.5457 41.2893 37.1216 41.1196 36.6084C40.95 37.1513 40.6191 37.6051 40.1738 37.8384L39.9023 37.4778C40.5131 37.1767 40.8948 36.4345 40.8948 35.7134V35.073H41.3402V35.7134L41.3444 35.7092ZM43.6177 36.6635H43.007V38.6612H42.5617V34.7422H43.007V36.2945H43.6177V36.6635Z" fill="white"/>
<path d="M45.254 37.5552C45.606 37.534 45.9623 37.5128 46.2974 37.4661L46.3271 37.7927C45.4618 37.9412 44.533 37.9539 43.8247 37.9539L43.7695 37.5849C44.0834 37.5849 44.4439 37.5849 44.8129 37.5722V37.1904C44.3718 37.1226 44.0791 36.8511 44.0791 36.4737C44.0791 36.0368 44.4694 35.7441 45.0377 35.7441C45.606 35.7441 45.992 36.0368 45.992 36.4737C45.992 36.8554 45.6993 37.1183 45.2582 37.1904V37.5594L45.254 37.5552ZM46.2125 35.5533H43.8416V35.1928H44.8044V34.7474H45.2498V35.1928H46.2083V35.5533H46.2125ZM45.0334 36.8639C45.3473 36.8639 45.5636 36.7154 45.5636 36.4737C45.5636 36.2319 45.3473 36.0877 45.0334 36.0877C44.7196 36.0877 44.499 36.2361 44.499 36.4737C44.499 36.7112 44.7153 36.8639 45.0334 36.8639ZM46.9675 38.6537H46.5179V34.7305H46.9675V38.6537Z" fill="white"/>
<path d="M49.6317 36.9402C49.1991 36.7875 48.8852 36.4779 48.7156 36.1004C48.5417 36.5203 48.2109 36.8596 47.7486 37.0208L47.5195 36.6688C48.126 36.4609 48.4823 35.9435 48.4823 35.4133V35.337H47.6553V34.9765H49.7505V35.337H48.9361V35.4091C48.9361 35.8968 49.2712 36.3846 49.8565 36.5882L49.636 36.936L49.6317 36.9402ZM48.126 37.271H50.7684V38.6537H50.3231V37.6273H48.126V37.2668V37.271ZM50.7684 34.7305V37.0759H50.3231V36.0877H49.636V35.7187H50.3231V34.7347H50.7684V34.7305Z" fill="white"/>
<path d="M53.3112 35.1539C53.3112 36.2906 52.8234 37.2958 51.5468 37.9447L51.3008 37.6012C52.2593 37.1092 52.7768 36.4221 52.8658 35.5187H51.4959V35.1539H53.3154H53.3112ZM54.9271 36.6596H54.3333V38.6573H53.888V34.7383H54.3333V36.2864H54.9271V36.6596Z" fill="white"/>
<path d="M56.5625 35.9817C56.5625 36.5967 56.9442 37.2371 57.5507 37.5001L57.3132 37.8478C56.8678 37.6527 56.5243 37.2498 56.3462 36.7578C56.1723 37.2795 55.8287 37.7036 55.3749 37.9115L55.1289 37.5679C55.7439 37.2922 56.1171 36.6263 56.1171 35.9817V35.7569H55.2477V35.3964H56.1171V34.8153H56.5625V35.3964H57.4107V35.7569H56.5625V35.9817ZM58.3099 38.6495H57.8603V34.7305H58.3099V38.6495Z" fill="white"/>
<path d="M60.295 35.8707C60.295 36.5196 60.6979 37.1983 61.3086 37.457L61.0626 37.809C60.6088 37.6097 60.2568 37.1855 60.0744 36.6766C59.9005 37.2237 59.5485 37.686 59.0904 37.9108L58.8359 37.5545C59.4424 37.2704 59.8454 36.5451 59.8454 35.8707V35.4975H58.9717V35.1285H61.1687V35.4975H60.295V35.8707ZM62.0721 38.6573H61.6225V34.7383H62.0721V38.6573Z" fill="white"/>
<path d="M66.1831 37.8353V38.2043H62.6289V37.8353H63.562V36.9913H62.9343V36.6308H63.4984V35.4347H62.9216V35.0742H65.8693V35.4347H65.2925V36.6308H65.8566V36.9913H65.2288V37.8353H66.1874H66.1831ZM63.9437 36.635H64.8471V35.439H63.9437V36.635ZM64.0116 37.8353H64.7835V36.9955H64.0116V37.8353Z" fill="white"/>
<path d="M41.5741 24.2344H40.4883V32.6619H41.5741V24.2344Z" fill="white"/>
<path d="M43.3398 24.2266H44.4256L49.2735 31.0636V24.2266H50.3593V32.6583H49.2735L44.4256 25.7704V32.6583H43.3398V24.2266Z" fill="white"/>
<path d="M51.7695 24.2344H55.2093C55.837 24.2344 56.4011 24.3446 56.8803 24.5482C57.3469 24.7645 57.7371 25.0572 58.0637 25.4262C58.369 25.8079 58.6066 26.249 58.7592 26.7622C58.9119 27.2839 58.9883 27.8353 58.9883 28.4333C58.9883 29.061 58.8907 29.6251 58.6956 30.1383C58.5005 30.66 58.2164 31.1011 57.8601 31.4743C57.4911 31.8433 57.0457 32.136 56.5283 32.3523C55.9981 32.5601 55.4001 32.6661 54.7512 32.6661H51.778V24.2386L51.7695 24.2344ZM52.8553 31.7712H54.7215C55.222 31.7712 55.6673 31.6737 56.0575 31.4998C56.4477 31.3259 56.7743 31.0884 57.0542 30.7745C57.3257 30.4691 57.5335 30.1129 57.6819 29.7014C57.8219 29.2985 57.8983 28.8659 57.8983 28.3994C57.8983 27.9328 57.8346 27.5214 57.7244 27.11C57.6056 26.7198 57.4317 26.372 57.1942 26.0666C56.9567 25.7825 56.6513 25.5449 56.295 25.3711C55.926 25.2099 55.4807 25.1208 54.9845 25.1208H52.8596V31.7712H52.8553Z" fill="white"/>
<path d="M65.9098 27.9038V28.7945H61.2104V31.7761H66.2237V32.6583H60.1289V24.2266H66.1134V25.1172H61.2104V27.9038H65.9098Z" fill="white"/>
<path d="M66.976 32.6619L69.8813 28.4842L66.9336 24.2344H68.1254L70.4921 27.6274L72.8545 24.2344H74.0505L71.0859 28.4842L74.0039 32.6619H72.7909L70.4921 29.3537L68.189 32.6619H66.976Z" fill="white"/>
<path d="M40.3171 8.24718C40.4995 8.42108 40.72 8.58225 40.9575 8.71373C41.1951 8.85369 41.4453 8.96397 41.7167 9.07C41.9755 9.16755 42.2384 9.2439 42.5184 9.29903C42.7771 9.34145 43.04 9.37538 43.2903 9.37538C43.8544 9.36265 44.3209 9.2439 44.6772 9.01911C45.025 8.78159 45.1989 8.4126 45.1989 7.91212C45.1989 7.70429 45.1565 7.52192 45.0674 7.34802C44.9698 7.19533 44.8384 7.04265 44.6772 6.91541C44.5033 6.79665 44.287 6.68637 44.0495 6.58034C43.7992 6.49551 43.5193 6.39796 43.2139 6.3089C42.6626 6.15621 42.1833 5.99504 41.7931 5.82114C41.3817 5.65997 41.0551 5.47335 40.7964 5.25704C40.5249 5.04922 40.3298 4.8117 40.2111 4.55298C40.0796 4.29426 40.016 3.98889 40.016 3.6411C40.016 3.2721 40.0923 2.94552 40.2535 2.66559C40.4062 2.38142 40.6098 2.15663 40.8939 1.96153C41.1526 1.78763 41.4792 1.64767 41.8482 1.55012C42.2045 1.46529 42.5989 1.41016 43.0103 1.41016C43.5193 1.41016 44.0283 1.49498 44.5415 1.66888C45.0377 1.85125 45.517 2.11422 45.9623 2.44928L45.5297 3.22969C45.3685 3.11093 45.1946 2.99217 44.9995 2.8819C44.8044 2.77162 44.5966 2.67407 44.393 2.58925C44.1767 2.50442 43.9604 2.43656 43.7441 2.38142C43.5151 2.33901 43.2988 2.30508 43.0952 2.29659C42.8449 2.29659 42.6074 2.30932 42.3784 2.35173C42.1409 2.39415 41.9246 2.47049 41.7379 2.56804C41.5428 2.67831 41.3902 2.81828 41.2841 2.97945C41.1654 3.15334 41.1102 3.36965 41.1102 3.60717C41.1102 3.84468 41.1442 4.03978 41.2205 4.19247C41.2841 4.36637 41.4029 4.50633 41.5768 4.62509C41.7295 4.75657 41.9458 4.87532 42.2045 4.97288C42.4632 5.08315 42.7813 5.18918 43.1715 5.29946C43.6508 5.45215 44.0834 5.59211 44.4736 5.7448C44.8553 5.90597 45.1777 6.07986 45.4618 6.27496C45.7206 6.48279 45.9284 6.70758 46.0811 6.95782C46.221 7.21654 46.2974 7.50919 46.2974 7.83577C46.2974 8.26839 46.221 8.65011 46.0683 8.95125C45.9072 9.25662 45.6866 9.50262 45.4194 9.70196C45.1395 9.89706 44.8129 10.037 44.4312 10.1346C44.041 10.2194 43.6296 10.2661 43.1715 10.2661C42.5862 10.2661 42.0094 10.1685 41.4368 9.97341C40.8515 9.76558 40.3213 9.48565 39.8633 9.11666L40.3298 8.24718H40.3171Z" fill="white"/>
<path d="M46.6992 5.81858C46.6992 5.1442 46.8095 4.52921 47.047 3.9736C47.2633 3.43071 47.5772 2.96416 47.9674 2.57396C48.3576 2.20496 48.8029 1.91231 49.3246 1.696C49.8336 1.5009 50.3765 1.39062 50.9618 1.39062C51.5471 1.39062 52.1027 1.5009 52.6201 1.696C53.1291 1.91231 53.5871 2.20496 53.9773 2.57396C54.3591 2.96416 54.6602 3.43071 54.8977 3.9736C55.114 4.52497 55.2328 5.1442 55.2328 5.81858C55.2328 6.49295 55.114 7.12915 54.8977 7.67204C54.6602 8.22341 54.3548 8.68996 53.9773 9.07168C53.5871 9.4534 53.1333 9.74605 52.6201 9.96236C52.0984 10.1575 51.5471 10.2677 50.9618 10.2677C50.3765 10.2677 49.8336 10.1575 49.3246 9.96236C48.8029 9.74605 48.3576 9.4534 47.9674 9.07168C47.5772 8.68996 47.2633 8.22765 47.047 7.67204C46.8095 7.12915 46.6992 6.50991 46.6992 5.81858ZM47.785 5.81858C47.785 6.40388 47.8698 6.91284 48.0564 7.34546C48.2303 7.7908 48.4594 8.15979 48.7605 8.46093C49.0532 8.7663 49.3882 8.99109 49.7784 9.1565C50.1474 9.30919 50.5461 9.38554 50.9618 9.38554C51.3774 9.38554 51.7634 9.30919 52.1536 9.1565C52.5353 8.99533 52.8788 8.7663 53.1842 8.46093C53.4769 8.15555 53.7144 7.78655 53.901 7.34546C54.0749 6.91284 54.1597 6.40388 54.1597 5.81858C54.1597 5.23327 54.0622 4.754 53.8756 4.3129C53.6804 3.88029 53.4429 3.49857 53.1376 3.19743C52.8322 2.90478 52.4886 2.67575 52.1069 2.51458C51.7167 2.36189 51.335 2.28555 50.9575 2.28555C50.58 2.28555 50.1856 2.36189 49.8166 2.51458C49.4264 2.67575 49.0913 2.90478 48.7987 3.19743C48.4933 3.50281 48.2473 3.88029 48.0607 4.3129C47.8656 4.75824 47.7765 5.25448 47.7765 5.81858" fill="white"/>
<path d="M55.6917 5.83487C55.6917 5.19443 55.802 4.5964 56.0268 4.05775C56.2431 3.51486 56.5358 3.04832 56.926 2.64539C57.3077 2.25519 57.7615 1.94981 58.2917 1.72502C58.8134 1.50871 59.3859 1.39844 59.9925 1.39844C60.7304 1.39844 61.426 1.57233 62.0665 1.92012C62.6942 2.27639 63.2159 2.76839 63.64 3.3961L62.8596 3.9602C62.5542 3.47245 62.1555 3.06952 61.6678 2.74718C61.1673 2.44181 60.5947 2.28063 59.9628 2.28063C59.5089 2.28063 59.0848 2.37819 58.6946 2.5648C58.3044 2.7599 57.9693 3.01014 57.6852 3.324C57.401 3.65058 57.1762 4.02806 57.0235 4.4522C56.8496 4.88481 56.7733 5.35136 56.7733 5.83911C56.7733 6.32687 56.8581 6.80614 57.032 7.23875C57.1932 7.67137 57.4349 8.05309 57.7361 8.36695C58.0414 8.69353 58.3977 8.93104 58.8303 9.11342C59.2417 9.28731 59.7083 9.38487 60.2172 9.38487C60.8025 9.38487 61.3242 9.22369 61.7781 8.91832C62.2234 8.61718 62.6009 8.20153 62.919 7.68409L63.6782 8.28212C63.2668 8.90135 62.7578 9.37638 62.1258 9.74538C61.4981 10.0932 60.7813 10.2755 59.9882 10.2755C59.4114 10.2755 58.8727 10.1653 58.3511 9.97017C57.8294 9.75386 57.3755 9.46121 56.9853 9.07949C56.5867 8.68929 56.2686 8.22274 56.0438 7.67137C55.8063 7.12848 55.6875 6.52197 55.6875 5.83911" fill="white"/>
<path d="M65.6014 1.62109H64.5156V10.0486H65.6014V1.62109Z" fill="white"/>
<path d="M74.6875 1.62109H75.7733V9.16218H80.5575V10.0486H74.6875V1.62109Z" fill="white"/>
<path d="M70.7814 1.62109H69.6744L66.3789 10.0486H67.5071L70.2258 3.03346L72.9487 10.0486H74.0769L70.7814 1.62109Z" fill="white"/>
<path d="M45.8125 13.3086H46.9407L49.6636 20.3365L52.3866 13.3086H53.5148L50.215 21.7361H49.108L45.8125 13.3086Z" fill="white"/>
<path d="M60.332 13.3086H61.4136V20.8454H66.1978V21.7361H60.332V13.3086Z" fill="white"/>
<path d="M70.1251 21.9524C69.6034 21.9524 69.1369 21.8676 68.7127 21.7022C68.2801 21.5283 67.8984 21.2908 67.5973 20.9981C67.2834 20.6928 67.0459 20.3365 66.872 19.9251C66.6981 19.5221 66.6133 19.0895 66.6133 18.6103V13.3086H67.6991V18.5042C67.6991 18.8308 67.7542 19.1447 67.8602 19.4373C67.9578 19.7427 68.1105 20.0141 68.3268 20.2389C68.5219 20.4764 68.7806 20.6503 69.086 20.7903C69.3786 20.9218 69.7264 20.9981 70.1293 20.9981C70.5323 20.9981 70.8758 20.9218 71.1812 20.7903C71.4738 20.6503 71.7241 20.4764 71.9277 20.2389C72.1228 20.0099 72.2839 19.7385 72.3942 19.4373C72.4918 19.1447 72.5469 18.8308 72.5469 18.5042V13.3086H73.6327V18.6103C73.6327 19.0895 73.5479 19.5221 73.374 19.9251C73.2001 20.3365 72.9626 20.697 72.6572 20.9981C72.3433 21.2908 71.9743 21.5283 71.5502 21.7022C71.1176 21.8634 70.6383 21.9524 70.1293 21.9524" fill="white"/>
<path d="M80.4528 16.9858V17.8765H75.7577V20.8582H80.7667V21.7361H74.6719V13.3086H80.6606V14.1993H75.7577V16.9858H80.4528Z" fill="white"/>
<path d="M56.231 13.3086H55.124L51.8242 21.7361H52.9524L55.6753 14.7167L58.3983 21.7361H59.5265L56.231 13.3086Z" fill="white"/>
</g>
<defs>
<clipPath id="clip0_604_67524">
<rect width="80.7719" height="40" fill="white"/>
</clipPath>
</defs>
</svg>
