<svg width="57" height="64" viewBox="0 0 57 64" fill="none" xmlns="http://www.w3.org/2000/svg">
<g clip-path="url(#clip0_631_3230)">
<path d="M0.500072 22.8589C0.509205 17.9892 0.515724 13.2402 0.515724 9.26089C10.9675 7.0936 20.3876 3.91893 28.4915 0.00762684V0C28.4915 0 28.4974 0.00254228 28.5 0.00381342C28.5026 0.00254228 28.5059 0.00127114 28.5085 0V0.00762684C36.6118 3.91893 46.0325 7.0936 56.4843 9.26089C56.4843 13.2402 56.4908 17.9892 56.4999 22.8589C56.5332 40.2545 45.5864 55.9778 28.5085 63.9917V64C28.5085 64 28.5052 63.9987 28.5026 63.9968C28.502 63.9968 28.5007 63.9962 28.5 63.9956C28.4993 63.9956 28.498 63.9962 28.4974 63.9968C28.4948 63.9981 28.4935 63.9987 28.4915 64V63.9917C11.4136 55.9778 0.466812 40.2545 0.500072 22.8589Z" fill="#2D873E"/>
<path d="M28.2183 18.9727C31.8685 19 34.8281 21.5709 34.8281 24.7284V26.6421H33.1533V24.7284C33.1533 22.3679 30.9451 20.4459 28.2183 20.4186C25.4916 20.4459 23.2833 22.3679 23.2833 24.7284V26.6421H21.6085V24.7284C21.6085 21.5709 24.5681 19 28.2183 18.9727Z" fill="white"/>
<path d="M22.0678 26.502H34.3712C35.5914 26.502 36.5801 27.3555 36.5801 28.4093V39.132C36.5801 40.1851 35.5907 41.0393 34.3712 41.0393H22.0678C20.8476 41.0393 19.8589 40.1858 19.8589 39.132V28.4093C19.8589 27.3562 20.8483 26.502 22.0678 26.502ZM26.697 36.1969H29.742L29.2881 33.6661C29.5685 33.4195 29.742 33.0826 29.742 32.7096C29.742 31.9729 29.065 31.3736 28.2192 31.3469C27.3733 31.3736 26.6963 31.9729 26.6963 32.7096C26.6963 33.082 26.8698 33.4195 27.1502 33.6661L26.6963 36.1969H26.697Z" fill="white"/>
</g>
<defs>
<clipPath id="clip0_631_3230">
<rect width="56" height="64" fill="white" transform="matrix(-1 0 0 1 56.5 0)"/>
</clipPath>
</defs>
</svg>
