<svg width="20" height="20" viewBox="0 0 20 20" fill="none" xmlns="http://www.w3.org/2000/svg">
<path d="M16.2998 6.7002L16.2998 16C16.2998 16.718 15.718 17.2998 15 17.2998L5 17.2998C4.28203 17.2998 3.7002 16.718 3.7002 16L3.7002 6.7002L16.2998 6.7002Z" stroke="#717171" stroke-width="1.4"/>
<mask id="path-2-inside-1_636_3299" fill="white">
<path d="M5 5C5 3.34315 6.34315 2 8 2L12 2C13.6569 2 15 3.34315 15 5L15 7L5 7L5 5Z"/>
</mask>
<path d="M3.6 5C3.6 2.56995 5.56995 0.6 8 0.6L12 0.6C14.4301 0.6 16.4 2.56995 16.4 5L13.6 5C13.6 4.11634 12.8837 3.4 12 3.4L8 3.4C7.11634 3.4 6.4 4.11634 6.4 5L3.6 5ZM15 7L5 7L15 7ZM3.6 7L3.6 5C3.6 2.56995 5.56995 0.6 8 0.6L8 3.4C7.11634 3.4 6.4 4.11634 6.4 5L6.4 7L3.6 7ZM12 0.6C14.4301 0.6 16.4 2.56995 16.4 5L16.4 7L13.6 7L13.6 5C13.6 4.11634 12.8837 3.4 12 3.4L12 0.6Z" fill="#717171" mask="url(#path-2-inside-1_636_3299)"/>
<line x1="9.98125" y1="10" x2="9.98125" y2="12" stroke="#717171" stroke-width="1.4"/>
</svg>
